<svg version="1.2" xmlns="http://www.w3.org/2000/svg" viewBox="0 0 1170 1119" width="1170" height="1119"><style>.a{fill:#fff}</style><path class="a" d="m331 176q-54 9-93.5 49-39.5 40-48.5 94v515q9 53 48 92 39 39 91 49l4 1h515l3-1q53-10 91.5-49.5 38.5-39.5 47.5-92.5v-515q-9-53-49-93-40-40-94-49zm560 99v38 38q-106 1-284 0l1-75zm-321 1q1 25 1 75h-282v-75zm179 112h142v76h-284v-76zm-178 0v76l-282-1v-74zm72 112q55 0 165 1h82v76l-283 1v-78zm-72 0v26 52h-282v-77h282zm36 115h121 162q1 18 0 55v20h-282zm-207 35q25 0 48.5 10.5 23.5 10.5 39.5 29.5 22 25 25 59.5 3 34.5-12 66-15 31.5-45 46.5-28 16-62.5 13.5-34.5-2.5-62-22.5-27.5-20-36.5-52-12-29-5-61 7-32 29-55.5 22-23.5 53-30.5 14-4 28-4z"/></svg>