<?xml version="1.0" encoding="UTF-8" standalone="no"?>
<!-- Created with Inkscape (http://www.inkscape.org/) -->

<svg xmlns:dc="http://purl.org/dc/elements/1.1/"
  xmlns:cc="http://creativecommons.org/ns#"
  xmlns:rdf="http://www.w3.org/1999/02/22-rdf-syntax-ns#"
  xmlns:svg="http://www.w3.org/2000/svg"
  xmlns="http://www.w3.org/2000/svg"
  version="1.1"
  width="600"
  height="600"
  id="svg2">
  <metadata id="metadata25">
    <rdf:RDF>
      <cc:Work rdf:about="">
        <dc:format>image/svg+xml</dc:format>
        <dc:type rdf:resource="http://purl.org/dc/dcmitype/StillImage" />
        <dc:title></dc:title>
      </cc:Work>
    </rdf:RDF>
  </metadata>
  <defs id="defs4" />
  <g transform="matrix(0.07678136,0,0,0.07716539,-80.539189,-13.686956)"
    id="g4180">
    <path d="m 8509.9372,1505.6875 -13.6874,13.6562 -25.0626,2.2813 -15.9687,11.4063 -6.8125,18.2187 -15.9688,4.5625 -20.5,20.5312 -15.9687,11.375 0,18.25 -20.5,0 -9.125,11.375 -4.5313,15.9688 -13.6874,9.0938 -13.6876,0 0,13.6874 -15.9374,13.6563 -13.6876,4.5625 -15.9374,13.6875 -13.6876,9.125 -13.6562,9.0937 -22.7812,13.6876 -18.25,9.125 -27.3438,11.375 -18.2188,13.6874 -9.125,11.375 -20.5,0 -11.4062,11.4063 -27.3438,15.9375 -20.5,4.5625 -18.25,6.8437 -54.6874,2.2813 -6.8438,18.2187 -18.2188,2.2813 -34.1874,2.2813 -25.0626,11.4062 -31.9062,2.2812 -29.625,0 -22.8125,-11.4062 -15.9375,-15.9375 -15.9688,-11.4063 4.5626,-11.4062 11.4062,-9.0938 6.8438,-31.9062 6.8124,-15.9688 0,-9.0937 -4.5312,-9.125 -9.125,-25.0625 -6.8438,-15.9688 -11.4062,-15.9374 -15.9375,-6.8438 -20.5,0 -2.2813,13.6875 22.7813,6.8125 9.125,2.2812 0,18.25 -15.9687,0 6.8437,15.9376 c 0,0 9.125,-4.5485 9.125,9.125 0,13.6732 11.375,13.6562 11.375,13.6562 l -4.5625,22.8125 -6.8125,9.0937 0,25.0938 -9.125,9.0938 -2.2813,20.5312 -4.5624,11.375 -9.0938,38.75 -5.6875,20.125 -13.2187,17.625 -7.0626,22.9375 -40.5624,38.7813 -7.9376,10.5937 -6.1874,3.5313 -3.5,21.1562 -7.9376,0.875 -2.6562,7.9375 -15,8.8125 -15.875,6.1875 -21.1562,22.0313 -31.75,8.8124 -11.4376,5.2813 -2.6562,9.7187 -16.75,7.0626 -19.4062,8.8124 -16.75,16.75 -15.875,7.0626 -5.2813,12.3437 -13.2187,0.875 -3.5313,5.2813 -45.875,0.875 -6.1563,-7.0313 -18.5312,-6.1875 -14.0938,-11.4688 -14.125,-5.2812 0.9063,-15.875 -15,-24.6875 -11.4687,-11.4687 -13.2188,-5.2813 -19.4062,2.6563 -44.0938,7.0312 -57.3125,-6.1562 -30.8437,3.5312 -32.625,-0.9062 -11.4688,-21.1563 -21.1562,-22.0313 -14.125,-3.5312 -6.1563,-15 -12.3437,-13.2188 -17.6563,-8.8124 -11.4687,-6.1876 -5.2813,-5.2812 -2.6563,-5.2812 -6.1562,-10.5938 -23.8125,0.875 -2.6563,6.1875 -21.1562,12.3437 -7.0625,7.9376 -9.6875,21.1562 -6.1562,11.4688 -16.7813,9.6874 -18.5,7.9376 -26.4687,5.3124 -43.1876,4.4063 -22.0624,13.2187 -36.1563,12.3438 -18.5,5.2812 -22.9375,12.3438 -28.2188,6.1875 -14.9687,7.0313 -15.875,-2.625 -13.2187,-6.1876 -19.4063,-2.625 -15.875,-3.5312 -10.5937,-7.0625 -14.0938,-4.4063 -6.1875,-7.9374 7.0625,-2.6563 -2.6562,-7.9375 -10.5626,2.6562 -11.4687,9.6876 -3.5313,8.8437 -9.6874,17.625 -11.4688,15.875 -9.6875,22.0313 -8.8437,11.4687 -9.6876,13.2187 c 0,0 12.7074,-3.9737 -10.5937,15.875 l -23.7813,20.2813 -6.1874,20.2813 -15,14.125 -14.9688,19.375 -7.9375,19.4062 -5.3125,6.1875 -16.75,11.4687 -6.1562,7.0313 -4.4063,10.5937 -8.8437,1.75 -8.8126,14.125 -18.5,6.1563 -13.2187,10.5937 -7.0625,15 -15.875,5.2813 -9.6875,13.2187 -34.4063,5.2813 -16.75,1.7813 -3.5312,6.1562 -12.3438,6.1875 -14.0937,5.2813 -1.7813,6.1874 -7.0624,2.625 -1.75,2.6563 -28.2188,5.2813 -29.9688,3.5312 -28.2187,1.7812 -7.0625,7.0313 -8.8125,7.9375 -9.7187,2.6562 -8.8126,10.5938 -9.6874,7.9062 -5.2813,9.7188 -7.0625,5.2812 -43.2188,6.1876 -20.2812,14.0937 -58.1875,9.7187 -23.8125,9.6876 -21.1562,3.5312 -38.8126,-2.6562 -9.6874,-7.9376 -8.8126,-8.8124 -27.3437,-0.875 -11.4687,4.4062 -12.3438,14.0938 -15.875,15 -20.2812,12.3437 -8.8126,11.4687 -26.4374,7.0626 -10.5938,7.0312 -7.0625,7.0625 -23.7813,8.8125 -23.8124,0.875 -8.8126,-7.0312 -37.9374,-1.7813 -12.3438,4.4063 -22.0312,12.3437 -12.3438,11.4687 -13.25,5.3126 -9.6875,0 -5.2813,6.1562 -24.6874,0.875 -27.3438,-3.5312 -11.4688,-6.1563 -27.3437,-1.7813 -20.2813,5.3126 -20.2812,7.9374 -33.5,0 -32.625,-6.1874 -14.0938,-4.4063 -34.4062,-0.875 -31.719,-6.1875 -9.718,-3.5 -11.313,2.375 5.156,19.6562 -6.187,-17.625 -3.375,-7.875 -11.719,-4.6874 -4.688,6.25 -29.687,-2.6563 -21.844,-10.5625 -15.469,-4.4062 -11.468,7.9687 -11.938,8.375 -12.812,10.1875 -37.594,8.375 -22.531,4.875 -16.344,-4.875 -26.969,-5.2812 -32.687,1.3124 -6.188,7.0626 -19.437,2.2187 -5.313,-4.875 -10.156,-9.7187 -21.219,-9.7188 -24.312,-4.8438 -5.313,-17.25 -14.125,-4.4062 -0.906,-18.125 -25.188,-2.2188 -5.75,9.7188 -7.062,3.0938 -5.312,9.2812 -9.282,3.5312 -19.875,6.625 -11.937,4.4376 -17.219,5.3124 -18.125,0 -10.625,8.375 -4.844,-5.2812 -46.843,1.3125 -33.157,11.0625 -17.219,11.4688 -20.343,18.5624 -19.438,19.4376 -22.093,10.625 -22.094,10.1562 -39.344,19.4375 c 0,0 -16.357,10.625 -18.125,10.625 -1.767,0 -20.313,8.375 -20.313,8.375 L 4539,2701 l -8.844,8.8437 -20.313,9.7188 -29.624,11.0625 -41.532,10.5937 -19.437,4.4376 -4,5.7187 -45.5,8.4063 -40.657,10.1562 c 0,0 -26.981,3.5625 -28.75,3.5625 -1.768,0 -41.968,-3.0937 -41.968,-3.0937 l -38,-5.75 c 0,0 -30.076,-0.021 -31.844,-0.9063 -1.767,-0.884 -5.728,-5.2769 -7.938,-5.7187 -2.21,-0.4421 -7.504,-1.7903 -7.062,-4 0.442,-2.2097 3.094,-19.875 3.094,-19.875 l 2.187,-4.875 22.531,0 8.407,2.2187 4.875,4.875 4.406,-4 -8.406,-3.5313 -5.719,-6.625 c 0,0 -11.077,0 -12.844,-0.4374 -1.768,-0.4422 -7.5,-6.625 -7.5,-6.625 l -7.5,0 -7.969,6.1874 -39.343,-0.4374 -69.813,-10.625 -29.625,-10.1563 -9.719,-10.625 -7.062,-12.8125 -43.75,-6.1875 -8.844,-4.4063 -12.375,-15.9062 -20.781,-9.2812 -10.156,-10.625 -19.438,-11.0313 -38,-19 -31.375,-11.5 -10.187,-9.7187 -19.875,-8.8438 -7.5,-19.4375 -14.157,-4.875 -4.406,-8.8437 -7.968,-3.0938 -3.094,-16.3438 -6.625,-4.8437 -1.344,-15.9063 7.969,-6.6562 3.531,-19 -0.437,-45.9688 -5.313,-9.25 -9.281,-15.9374 -4.844,-6.625 6.188,-6.625 3.968,-7.0626 -4.406,-4.875 -24.75,-1.75 -7.969,-4.4374 -29.593,-6.1876 -10.626,2.2188 -7.937,23.4375 -20.344,11.9063 -20.781,10.625 -31.375,10.1562 -26.5,10.5938 -15.469,4 -51.718,0 -25.188,-6.625 -32.25,-4 -27.844,-6.1876 -18.125,-7.0624 -12.812,-6.625 c 0,0 0.433,-7.9688 -2.219,-7.9688 -2.651,0 -12.812,-5.2812 -12.812,-5.2812 l -3.094,-12.8126 -10.156,-6.6562 -10.626,-11.9062 -12.374,-8.4063 -6.188,-10.625 -7.062,-5.7187 3.968,-9.7188 14.594,-0.9062 1.312,8.4062 9.75,2.6562 4.407,-6.1874 -7.063,-8.4063 -5.312,-21.2187 5.312,-19 5.75,-19.4376 -4.875,-12.375 -12.812,-30.9374 -7.531,-27.8438 c 0,0 -8.813,-18.1072 -8.813,-19.875 0,-1.7677 -4,-12.375 -4,-12.375 l -36.656,-10.1875 -21.657,-9.7187 -20.781,-8.375 -7.969,-40.6876 -9.281,-8.375 -11.906,-19.9062 -8.406,-6.625 -13.25,6.1875 -30.5,10.1563 -7.969,9.2812 -10.156,19.9062 -21.656,19.4376 -3.094,13.7187 -7.063,10.1563 -4.875,2.2187 -2.656,-8.8437 -29.594,-2.6563 -4,9.7187 -15,0.875 -4.437,-9.2812 -10.594,-14.5625 -15.031,0 -0.156,0.4063 0,14.4374 6.343,5.0313 2.657,16.3437 -2.657,9.7188 -4.875,13.7188 -12.375,11.0312 -21.187,9.2812 -7.532,13.7188 -32.687,7.0625 -21.219,10.5937 -46.844,6.6563 -11.062,3.9687 -10.156,-3.0937 c 0,0 -17.674,-18.1385 -19,-19.9063 -1.326,-1.7677 -6.188,-7.9374 -6.188,-7.9374 l 2.656,-11.9376 9.282,-3.5312 0.437,-5.3125 -15.906,-1.75 -7.969,-5.75 -22.531,5.75 -10.156,10.5937 -3.094,7.0626 -6.625,-7.0626 -13.281,-9.2812 -6.625,-9.7188 -24.313,-7.0624 -27.843,6.625 -11.032,9.2812 -19.437,10.1562 -11.5,12.8126 -5.563,6.5 5261.469,3507.5937 0.5312,-2.875 5.3126,-12.375 7.9687,-14.125 3.9687,-7.5313 12.375,-7.5 1.75,-7.9687 14.1563,-3.9687 1.9687,-1.9688 0,-2.9688 2.9688,0 5.6562,-5.6562 2.2188,-6.625 4.875,-18.125 5.75,-4.875 7.9375,-5.75 9.7187,4.4375 7.5313,4.8437 11.4687,-1.75 5.3126,-6.625 1.7812,-10.1874 6.1875,-2.1876 4.8437,-13.2812 8.4063,-3.0938 c 0,0 12.826,-2.1921 14.5937,-1.75 1.7678,0.4417 19,7.5 19,7.5 l 8.375,-1.75 23.875,-10.625 3.0938,-3.5312 -3.9688,-6.625 -2.6562,-3.0938 2.6562,-7.9374 10.1563,-8.4063 c 0,0 3.5269,-5.7636 3.9687,-7.5313 0.4419,-1.7675 -5.75,-3.5312 -5.75,-3.5312 l -3.5312,-12.375 0,-15.4688 4.875,-12.8124 7.0625,-19 c 0,0 16.7948,-3.5225 18.5625,-4.4063 1.768,-0.8842 22.0938,-5.75 22.0938,-5.75 l 7.9687,-2.6563 9.2813,-3.0937 4.4062,-9.2813 3.5312,-4.875 8.8438,-5.7187 7.9688,4.8437 4.4062,8.8438 6.625,13.6875 11.9375,8.4063 7.0625,6.625 18.125,1.3437 23.875,-4 2.6562,-6.625 -3.5312,-14.5625 -3.0938,-12.375 -7.5312,-11.0625 -10.5938,-10.1563 -10.625,-9.7187 -7.9374,-19.9063 -10.1563,-21.2187 -9.75,-9.2813 -31.8125,-4.8437 -9.2812,6.1875 -6.1876,12.8125 -14.5624,10.1563 -19.4688,-3.5313 -8.8438,-18.5625 -11.9062,-22.0938 -3.5625,-19 4,-9.7187 4.4063,-11.5 9.7187,-6.1875 12.375,-5.3125 18.125,-2.1875 1.3437,-6.1875 5.7188,-19 6.1875,-10.1875 7.9687,-23.4062 -3.0937,-21.6563 -7.0625,-23 -4.4375,-16.7813 -12.375,-8.4062 -30.0313,-1.3125 -11.5,5.75 -26.0624,4.8437 -13.2813,-6.1874 3.5313,-8.8438 14.1562,-14.125 9.7188,-2.2188 -11.5,-1.75 -13.25,13.6876 -9.7188,6.625 -11.5,-2.6563 -11.4688,-4.4063 -24.3124,-2.6562 -5.75,-6.1875 -8.8438,-15.9063 -21.2188,-11.0624 -11.0312,-26.9376 0.875,-15.4687 8.4062,-11.9375 5.75,-14.1562 9.7188,-0.875 12.375,7.0624 7.5,7.5313 10.5938,1.3125 2.6562,-4.8438 -7.5,-13.2812 -5.75,-13.25 -7.5,-14.125 -12.8125,-1.3438 -16.375,1.7813 4,8.8437 0.875,10.5938 -4.4375,2.2188 -4.8438,6.625 -12.6562,3.5624 -10.9688,-1.9062 -10.2812,-7.0938 -9.0312,-4.5 -7.0938,-11.5937 -3.8438,-42.5313 -6.4687,-26.4062 -19.9375,-11.5938 -9.6875,-15.4687 -10.2813,-11.5937 -7.75,-39.9376 3.2188,-25.75 13.5312,-12.25 10.9688,-12.2187 10.2812,-5.1563 -2.5624,-5.1562 -18.0313,-2.5938 -3.2187,-14.1562 5.7812,-7.7188 9.0312,-8.375 6.4376,9 12.2187,6.4376 8.375,-3.8438 -14.8125,-8.375 -3.8438,-7.75 2.5626,-5.1562 8.375,-12.2188 11.5937,-8.375 10.3125,0.625 3.875,16.125 3.2188,7.0625 1.2812,22.5625 1.9375,32.8438 7.7187,9.0312 7.7188,8.375 9.6875,1.9062 2.5625,-16.7187 8.375,-3.875 -7.7188,-7.0937 -8.375,-5.7813 -6.4374,-9.0313 -0.6563,-22.5312 1.9375,-14.8125 7.7188,-3.875 4.5,-7.7187 9.0312,5.7812 10.3125,10.3125 19.3125,9 6.4375,3.875 11.5937,2.5937 9.6563,-5.1562 -4.5,-17.4062 -12.875,-22.5313 -7.0937,-10.9687 -9,-18.6563 -12.25,-10.9687 -20.625,-19.3126 -19.3126,-9.6562 -19.9687,-20.625 -10.3125,-19.3125 -10.3125,-20.625 -7.0625,-5.7813 -18.6875,3.8438 -4.5,21.25 -2.5937,3.875 -4.5,10.3125 -10.3126,3.2187 -5.1562,9.6563 -3.2188,-1.2813 -0.625,-12.875 1.9063,-14.1874 -9,-3.875 -9.0313,-5.7813 -12.875,-3.875 -12.875,4.5313 -7.75,2.5624 -12.2187,0 -10.9687,-12.25 -20.5938,-11.5937 -21.25,-18.0313 -21.2812,-10.3124 -28.9688,0 -19.3125,-4.5 -8.375,4.5 -5.8125,3.875 -5.1562,-3.2188 -4.5,-13.5312 -7.0938,-5.7813 -2.5625,-10.3125 -5.8125,-20.625 -9,-40.1562 -2.9688,-6.375 -2.2812,-33.4688 c 0,0 -1.6065,-13.4282 -2.0625,-15.25 -0.455,-1.8218 -8.3125,0.2188 -8.3125,0.2188 l 2.4688,-28.8438 -0.4376,-35.3125 -0.4062,-38.2813 0,-54.25 -6.3125,-28.1562 -7.5625,-26.9062 -3.7812,-21.875 -8.4063,-61.8126 -5.0625,-23.5312 -4.1875,-36.5938 7.9687,-49.1874 8,-22.2813 12.1876,-4.2187 10.0937,-15.125 12.1875,-20.5938 9.25,-8.8438 9.6875,-19.3437 1.25,-5.0313 -2.5313,-6.3124 -2.5,-16.4063 3.7813,-13.0313 20.5937,-5.4687 8.8438,-2.9375 9.6562,-10.9375 21.0313,-10.5 8.4063,-20.1875 6.7187,-21.875 5.4687,-3.3438 3.375,-8.8437 6.3126,-1.6875 8.4062,-13.0312 5.875,-0.8438 5.0625,5.9062 5.0313,16.375 4.2187,-10.5 -3.7813,-10.5 -5.9062,-8 0.8438,-12.1874 18.0937,-9.6876 4.1875,-21 -3.7812,-18.9374 -2.9376,-18.5 -5.4687,-22.2813 -5.0313,-33.625 4.1876,-29.0313 3.375,-27.75 7.125,-19.3437 10.0937,-11.3437 9.6875,-9.6876 10.9375,-9.6562 9.6563,-20.5938 4.625,-18.9374 -6.3126,-5.0313 -3.7812,-13.4687 0.8438,-19.3438 10.0937,-5.4688 -4.2187,-5.4687 -3.3438,-5.875 1.25,-15.5625 10.0938,-19.75 10.9374,-23.125 4.625,-9.25 7.1563,-3.375 2.5,-5.875 -0.8125,-14.7188 5.875,-14.7187 2.9375,-4.625 -2.5313,-5.0625 -9.6562,-16.8125 -8.4062,-10.9375 -10.0938,-19.75 -5.0625,-29.4375 1.2813,-32.375 3.3437,-9.6563 6.75,-16 9.6563,-5.4687 9.25,-17.2187 13.0312,-22.2813 9.25,-20.1875 12.1875,-22.7188 5.0625,-20.5937 7.1562,-9.25 4.625,-8.8437 4.625,-9.25 7.5626,-8.8126 3.7812,-10.5312 -3.0312,-0.9688 2.8124,0.2813 10.9688,-7.0313 6.1875,-7.9374 7.9375,-9.6876 6.1562,-10.5937 8.8438,-3.5313 3.5,-15.875 -14.0938,-6.1562 0.875,-10.5938 3.5313,-15.875 6.1875,-2.625 7.0312,-9.7187 9.7188,-10.5625 8.8125,-10.5938 3.5313,-14.0937 11.4687,-3.5313 13.2187,-5.3124 6.1563,11.4687 14.125,0 0,-11.4687 -8.8125,-0.875 -0.9062,-10.5626 -6.1563,-9.7187 -5.2813,-3.5313 0,-13.2187 1.75,-7.9375 10.5938,-16.75 5.2812,-16.75 12.3438,-12.3438 13.2188,-11.4687 9.7187,-18.5313 7.0313,-9.6874 4.4062,-15 12.3438,-12.3438 10.5937,-11.4375 5.2813,-5.3125 19.4062,-8.8125 9.6875,-5.2813 -3.5,-7.0624 -11.4687,-0.875 0,-8.8126 2.625,-12.3437 7.0624,-7.9375 6.1876,-19.4062 7.9374,-10.5938 14.0938,-21.1562 7.9375,-7.9376 10.5937,-21.1562 9.6876,-8.8125 7.0624,-17.6563 23.8126,-22.0312 8.8124,-19.4062 15.875,-41.4376 14.0938,-9.6874 9.7188,-20.2813 10.5624,-8.8125 11.4688,-22.9375 8.8125,-11.4687 7.0625,-15 23.8125,-23.7813 5.2813,-27.3437 15,-21.1563 8.8124,-7.0625 12.3438,-21.1562 15.875,-8.8126 12.3438,-14.125 7.0624,-17.625 c 0,0 16.746,-29.9823 13.2188,-28.2187 -3.5269,1.7635 19.4062,-24.6875 19.4062,-24.6875 l 8.8126,-30.875 9.6874,-32.625 7.9376,-25.5625 15.875,-20.2813 8.8124,-31.75 7.0626,-27.3437 9.6874,-39.6563 21.1563,-37.0312 9.7187,-20.2812 9.6876,-9.7188 9.7187,-20.2812 11.4375,-32.625 5.3125,-8.8126 5.2813,-13.2187 7.0624,-6.1875 13.2188,-9.6875 13.2188,-15 1.7812,-22.0313 -9.7188,0 -11.4687,-1.7812 -4.4063,7.0625 13.25,4.4063 -9.7187,15 -7.0313,7.0624 -12.375,3.5 -3.5,-8.8124 0,-22.0313 0,-11.4687 8.8126,-4.4063 4.4062,-13.2187 -2.6562,-25.5938 7.0624,-14.0938 10.5938,-36.1562 6.1562,-9.6875 5.2813,-6.1875 11.4687,-18.5 10.5938,-15.875 8.8125,-2.6562 21.1563,-13.2188 9.7187,-9.7188 20.2813,-9.6874 43.1874,-8.8126 30.875,-6.1874 19.375,-7.0313 1.7813,-7.0625 -1.1563,-13.125 -20.5,-9.0938 -6.8437,-9.125 -27.3437,13.6563 -27.3438,-2.2813 -25.0625,-2.25 -18.25,-11.4062 -27.3437,-4.5625 -36.4688,-2.2813 -22.7812,-18.2187 -4.5626,-2.2813 -11.375,-13.6874 -18.25,-4.5626 -20.5,-11.375 z m -608.375,1519.5 12.6876,9.9375 0,0.031 -12.6876,-9.9688 z m 281.6876,2284.1562 -7.5,5.75 -2.6563,11.9376 3.0937,12.375 7.0626,8.8437 12.8124,-0.9063 -0.4374,-17.2187 -3.9688,-20.3437 z"
      id="rect1939"
      style="fill:#da272f;fill-opacity:1;fill-rule:nonzero;stroke:none" />
    <path d="m 2660.906,2219.1563 -2.375,2.7812 -11.469,9.2812 -1.343,12.8126 3.093,5.3124 3.969,38.875 -12.812,12.8438 -19.876,18.5625 -7.062,14.125 -11.5,4.4063 -11.938,6.6562 -3.531,7.9375 3.531,7.5313 9.282,8.8124 8.844,18.125 15.031,8.4063 7.062,12.8125 11.063,52.1562 11.468,22.5313 -2.656,15.9063 -9.718,11.0624 -20.75,9.7188 -19.469,18.5625 -28.719,10.5937 -16.344,12.375 -15.031,7.9688 -5.313,18.5625 -12.812,-0.4375 -12.375,11.0312 -20.313,11.9376 -18.124,10.5937 -20.344,19.4687 -16.782,5.75 -11.5,-0.4687 -2.187,4.4375 -19.906,9.1562 -20.657,10.0626 -29.843,10.5 -29.031,10.5 -32.719,9.7187 -45.531,5.3125 -41.532,-6.1875 -21.656,-8.8437 -11.031,-15.4688 -8.844,-25.625 -6.187,-18.125 -11.5,-4.875 -4.407,7.5312 -4.437,-1.7812 -5.313,-3.0938 -20.312,-8.4062 -27.407,-10.5938 -21.656,-21.2187 -16.781,-18.125 -12.813,-11.9375 -10.624,-15 -8.844,-3.5625 -8.375,-19.4375 -10.625,-22.0938 -10.594,-8.8437 -8.844,-18.125 -11.062,-11.9063 c 0,0 -3.532,-31.8215 -3.532,-34.0312 0,-2.2097 -6.624,-48.1875 -6.624,-48.1875 l -8.407,-18.5625 -11.469,-19.875 -23.437,-6.625 -5.75,-11.9375 -3.969,-10.625 3.532,-20.3125 c 0,0 5.312,-10.5984 5.312,-13.25 0,-2.6517 -2.656,-19.9062 -2.656,-19.9062 l -7.5,-6.1876 -17.25,-5.75 -10.156,6.1876 -19,8.8437 -15.907,5.3125 -17.25,-0.4375 -7.937,-11.0625 -0.469,-6.1875 5.75,-5.75 3.094,-15 -4.844,-4.875 -18.125,3.0937 -2.219,7.5 -3.531,3.5626 -3.969,11.0312 -3.093,3.9688 -6.626,18.125 5.719,20.7812 11.938,13.25 9.719,19 9.75,19 9.718,18.5625 4.406,14.1563 -4.874,16.3437 -11.032,10.1563 -9.281,30.5 -13.25,10.1562 -6.625,9.75 -4.438,11.4688 -8.843,3.5312 -3.094,7.0938 -14.125,8.8437 -18.562,3.5313 -20.782,-4.875 -13.25,-7.0626 -2.656,-19 -26.531,0 -7.5,7.9376 -13.25,3.5312 -7.531,15.4688 -3.969,4 3.969,5.2812 5.75,10.1875 9.281,7.0625 -4.407,21.6562 -19.437,11.0313 -11.5,4 -10.156,26.0625 -9.281,9.7188 -13.719,6.625 -7.938,7.9687 -19.469,5.75 -20.75,3.9687 -5.312,7.9688 -35.344,2.625 -27.406,-5.2812 -7.969,-4 -5.281,-11.9063 -4.438,9.7187 -33.156,6.1876 -8.375,30.0312 -7.969,13.7188 -12.812,6.1874 -10.156,19.4376 -10.156,11.0624 -9.75,19.4376 -18.094,9.7187 -11.5,20.3437 -19.906,20.3126 -17.219,2.6562 -38,0 -3.094,11.0625 -10.187,10.5937 6.187,3.9688 7.969,-3.0938 8.406,-7.5 26.938,-4.875 17.25,1.7813 14.593,4.4063 0,9.2812 -13.281,11.9375 -14.125,5.3125 -5.313,34.0312 -10.156,10.5938 -11.062,7.9688 -2.656,9.7187 -3.094,19 5.75,16.7813 6.187,13.7187 -4.406,33.125 -9.719,20.3437 -10.187,27.8438 -10.594,21.6562 -19,19.875 -12.813,19.9063 -7.531,30.0313 -16.343,9.2812 -5.75,11.9375 -7.063,7.0625 -7.969,4 4.438,8.375 6.625,4.875 7.5,-17.6875 4.875,0.9063 11.937,21.1874 10.157,18.5626 9.281,11.5 20.781,9.7187 9.281,8.4063 4.407,20.3124 -3.532,11.5 -8.406,18.5626 -9.719,41.0937 -11.031,19.9063 -7.531,24.2812 -1.313,36.6875 -10.156,28.75 -51.281,11.4687 -19.438,11.0626 -11.937,8.375 -2.219,6.6562 3.969,13.6875 9.281,9.7187 17.25,7.9688 23.875,12.8125 10.156,18.5625 7.063,18.5625 11.937,30.0313 11.5,23 9.719,8.375 7.937,20.3437 4.876,39.7813 -1.313,37.5624 7.937,21.6563 3.532,16.3437 -2.188,7.0626 -8.844,9.75 3.532,3.9687 12.812,3.9687 18.563,19 3.093,15.0313 17.25,4.875 11.032,11.4687 10.594,20.3438 17.687,8.8438 14.594,11.4687 7.5,7.9687 5.312,10.5938 7.063,5.75 18.125,5.75 17.687,4.4062 11.938,-5.2812 17.656,-5.75 9.281,-9.7188 16.375,1.75 8.375,4.4376 27.844,9.2812 22.094,10.5938 26.969,9.7187 11.937,10.1875 17.219,20.75 22.562,9.2812 8.813,48.1876 11.937,21.2187 9.282,11.9063 9.281,16.8124 19.906,19.875 12.375,24.75 10.594,7.5313 5.312,12.375 5.75,21.1875 17.219,4.875 16.344,19.875 22.562,20.3438 c 0,0 4.857,5.75 6.625,5.75 1.767,0 13.688,-5.3126 13.688,-5.3126 l 19.906,-9.7187 30.469,-6.1875 31.375,-4.4375 18.125,-8.375 29.187,-11.0625 23.844,-13.25 38.031,-7.5 28.719,-10.1875 81.75,-4.4063 37.562,-4.875 72.469,-6.1874 57.907,5.75 38.906,4.4374 21.5,6.8438 -0.625,0.625 6.875,6.875 6.875,6.875 3.75,-3.125 6.25,-8.125 6.25,-5.625 13.125,-6.25 27.5,5 28.75,5.625 20,8.75 10.625,8.125 20.625,11.25 10,8.75 9.375,20 20.625,10.625 20.625,20 13.75,6.875 3.75,19.375 13.75,15.625 18.125,16.25 11.875,13.125 5.625,21.25 5.625,6.875 5.625,33.125 11.875,6.875 15.625,3.75 10.625,-6.25 19.375,-3.75 8.125,-8.125 6.875,-1.875 5.625,-8.125 22.5,-5 36.875,-5.625 31.875,4.375 31.25,5 30,5.625 25,9.375 20.625,3.75 14.375,-3.75 41.25,-6.875 29.375,7.5 11.25,3.125 7.5,10.625 11.25,6.25 20.625,18.75 11.875,6.875 8.125,15 8.125,19.375 30,6.875 7.5,5 15.625,3.75 8.125,14.375 7.5,20 13.75,10.625 9.375,20 13.125,1.25 6.25,9.375 15.625,16.25 10,9.375 12.5,11.875 9.375,20.625 12.5,10 6.875,23.125 7.5,6.25 7.5,32.5 61.875,6.875 3.125,6.25 11.875,4.375 9.375,10 12.5,7.5 5,20.625 13.75,8.75 10,17.5 14.375,2.5 16.25,5 21.25,2.5 7.5,-6.875 11.875,9.375 14.375,0 3.125,6.875 11.25,9.375 19.375,8.75 5.625,3.75 9.375,2.5 1.875,7.5 15,6.875 8.75,8.75 10.625,10.625 31.875,5 5,6.25 6.875,2.5 4.375,13.75 10,11.25 21.875,10 8.125,20.625 6.25,13.75 12.5,5 12.5,10 21.25,10.625 33.125,6.25 25,3.75 17.5,9.375 3.125,6.25 7.5,-0.625 3.75,-3.75 19.375,-5 25,-3.75 5.625,-6.25 15,-1.875 13.75,6.25 22.5,10.625 18.75,10 9.375,3.75 9.375,-3.75 6.875,-13.75 24.375,-3.125 5.625,7.5 15,3.125 5,6.875 9.375,2.5 0.625,15 15.625,10.625 16.25,20 43.125,21.25 29.375,30.625 19.375,18.75 18.75,8.125 21.875,7.5 4.375,4.375 6.25,4.375 4.375,8.125 15,4.375 21.25,22.5 6.875,21.25 10,18.75 8.75,28.75 32.5,11.875 18.75,9.375 11.875,12.5 8.75,10.625 17.5,7.5 20,11.25 45,3.75 6.25,8.75 13.75,2.5 6.25,13.75 10,15 11.25,16.25 18.75,7.5 90,6.25 98.5,2.5312 5.312,3.9688 14.157,5.75 2.656,7.5 11.468,4.875 15.469,4.8438 5.313,15.4687 7.937,9.7187 9.281,12.8438 4,9.2812 -2.218,19 3.094,7.5 4.406,-7.0624 8.844,0 4.437,7.0624 7.063,2.6563 21.218,9.7187 17.656,8.8438 30.063,10.5938 23,6.1874 18.531,-5.2812 19.469,-5.3125 30.031,4.4063 5.313,3.5312 7.062,-3.5312 19.469,-14.125 17.656,-6.1876 33.594,-8.8437 19.438,-9.7187 17.687,-5.3126 124,1.5938 14.063,-0.125 17.062,-1.7812 c 0,0 6.781,-4.8247 6.781,-5.4688 0,-0.6438 29.781,-10.3125 29.781,-10.3125 l 18.844,-4.9687 21.406,5.3124 24.157,5.3126 45.562,4.1874 49.938,9.6563 60.3748,10.3125 38.9687,9.3438 31.5625,11.4374 29.1562,9.3126 21.5626,10 17.875,10.3124 21.2812,9.8126 19.3125,9.6562 40.0937,10 29.7813,9.9688 19.6563,10.3124 20.625,10.3126 20.75,9.8124 19.9687,19.8126 19.5,10.1562 9.5,9.5 20.625,11.4062 9.3125,18.6876 20.4688,9.8437 19.4687,20.125 20.7813,20.9375 19.8124,19.3125 5.3126,6.4375 8.4062,1.4688 11.2188,5.5312 4.375,14.375 10,8.75 11.25,15 20.625,18.75 17.5,20 11.25,19.375 20,21.25 9.375,17.5 11.875,13.75 8.75,18.75 11.25,9.375 6.25,14.375 11.25,11.25 3.75,5.625 8.75,20 17.5,19.375 10.625,20.625 10,19.375 9.375,19.375 22.5,21.875 9.375,18.125 13.75,23.75 5.625,12.5 3.75,23.125 5.625,10 0,25.625 11.875,5 5,11.875 9.375,18.75 5,19.375 5,23.125 -11.25,3.125 -1.25,10.625 4.375,6.25 13.125,-3.125 6.875,-4.375 8.75,12.5 13.75,11.875 9.375,11.875 10.625,18.125 11.875,10.625 5,13.75 3.75,6.875 10,3.75 23.125,-0.625 13.75,-4.375 5,-2.5 9.375,-0.625 7.5,4.375 20.625,8.75 16.25,4.375 28.75,0 13.75,-5.625 16.875,-3.75 23.75,3.75 24.375,8.75 16.875,1.25 24.375,8.125 8.125,8.75 9.375,2.5 11.25,5.625 26.875,6.875 45,10 23.75,8.125 10,12.5 3.125,13.125 23.75,1.875 13.125,8.75 20,5.625 11.875,10 6.25,11.25 11.875,7.5 10.625,11.25 10,23.125 18.75,6.25 c 0,0 25,5.625 28.125,5.625 3.1252,0 10,-3.75 10,-3.75 l 20,-5 41.25,-2.5 45,4.375 5,14.375 9.375,6.875 9.375,0.625 5.625,-4.375 16.25,2.5 10,12.5 23.75,4.375 17.5,-5 15.625,-6.875 3.75,-11.875 13.125,-10.625 5.625,-5.625 17.5,0.625 14.375,3.125 12.5,11.25 14.375,6.875 21.875,-0.625 0,-11.25 -6.25,-1.25 -4.375,6.25 -15,0.625 -6.25,-5 -3.125,-13.125 7.5,-13.125 8.125,-4.375 6.25,-8.125 10.625,-5 18.125,-6.875 11.875,-7.5 37.5,-8.125 15.625,-5 19.375,3.75 23.75,5.625 35.625,2.5 22.5,10.625 10,11.875 18.125,20 23.125,12.5 17.3437,6.75 2.875,5.5 9.0625,6.1875 c 0,0 3.3081,12.8347 3.75,13.7187 0.4423,0.8836 21.8639,1.7478 22.9688,1.9688 1.1048,0.2192 21.6562,3.7812 21.6562,3.7812 l 9.5,4.1876 10.8438,-3.5313 20.3124,-10.625 9.7188,-10.1563 13.9375,-3.75 4.1875,-7.5 0,-0.031 17.9062,-3.6875 30.3126,0 12.5,5 5.625,3.75 15.9374,5.9375 10.3126,10.625 18.7812,10.2188 11.5,6.1874 10.1562,11.9376 4.4063,3.9687 3.0937,23.4063 c 0,0 6.2143,7.9822 6.6563,9.75 0.4419,1.7675 1.75,17.2187 1.75,17.2187 l 4.4375,9.7187 4.8438,1.7813 9.2812,-7.0937 7.0625,4 19.4687,10.5937 7.5,9.7187 6.625,16.375 11.5,0 4.8438,-4 5.3125,-8.8437 3.5313,-7.0625 10.1874,-8.4062 18.0938,-10.1563 11.0625,-8.8437 7.0625,-13.25 5.75,-7.5 5.3125,-11.0626 33.5937,0.4376 c 0,0 3.0805,4.4154 4.4063,6.625 1.3257,2.2094 7.5,7.9687 7.5,7.9687 l 4.4375,3.0937 2.1875,-14.5937 6.6563,-31.375 26.0624,-9.7187 13.25,-10.1563 -13.25,-4.875 -14.5937,5.75 -9.2813,-2.2187 -14.5624,-7.0626 -3.0938,-10.5937 -10.5938,-9.75 -8.75,-5.3125 -7.8124,-20 -4.6876,-56.875 -1.875,-28.75 -1.25,-7.8125 -7.8124,9.375 -3.75,-5 -3.125,-19.0625 -9.375,-8.75 -5.9376,-7.1875 -7.8124,-12.8125 -10.9376,-11.25 -10,-21.5625 -1.5624,-10.3125 6.25,-9.6875 -4.0626,-8.125 -9.375,-9.375 -3.4374,-10.625 4.0624,-28.125 14.0626,-8.75 -0.625,-10 -4.0626,7.8125 -8.4374,0.9375 -4.2813,-8.2187 -7.5313,-8.8126 -3.9687,-6.1874 5.3125,-7.0938 19.4375,-9.7188 8.8437,-19.875 5.3126,-13.7187 -4,-16.7813 -6.1876,-29.625 -4.8437,-6.1874 -3.0937,-8.375 4.4062,-5.75 4.875,-33.1563 4.4062,-7.9375 9.2813,-19 12.375,-9.2812 9.7187,-11.5 10.1876,-13.25 22.0937,-1.7813 0,-13.6875 -0.9063,-14.1562 -7.0624,-5.75 0.4374,-9.7188 3.0938,-10.5938 4.4375,-20.3437 5.2813,-17.6875 4,-15.9062 7.0624,-15.9063 11.0313,-21.2187 7.5313,-15 12.8124,-4.4376 20.3438,-10.5937 9.2812,-21.2187 2.0938,-11.2813 -5261.5,-3507.5937 z m -1504.656,911.9687 -12.5,7.8125 -18.438,4.375 -9.375,6.25 -1.875,17.5 11.875,4.6875 7.188,14.375 5.937,9.6875 3.75,12.8125 2.188,19.6875 0,21.875 2.812,9.6875 2.813,14.0625 5,11.25 4.687,5.9375 5.938,3.125 4.062,-5 3.75,-12.8125 1.563,-15.9375 c 0,0 -5.625,-8.4375 -6.25,-10.3125 -0.625,-1.875 -3.75,-8.4375 -4.375,-9.6875 -0.625,-1.25 -0.938,-17.8125 -0.938,-17.8125 l 3.438,-6.875 3.75,-6.875 -1.25,-18.75 -9.688,-20.3125 -3.437,-5.3125 -0.313,-12.1875 7.813,-5.3125 0,-4.375 z m 28.437,33.125 -3.125,8.125 2.188,8.4375 7.187,5.625 7.5,4.6875 3.75,7.5 4.375,-3.4375 -2.812,-10.9375 -11.25,-3.125 -8.438,-5.9375 z m 39.688,45.9375 -22.188,3.125 c 0,0 1.563,15 1.563,17.5 0,2.5 1.875,9.6875 3.125,9.6875 1.25,0 20.625,-4.6875 20.625,-4.6875 l 2.187,-9.375 z m 6602.2185,3095.75 -4.8437,0.4375 0,6.625 4.4062,3.0937 2.2188,-2.6562 z m -97.6563,308.9062 -1.7812,6.1876 1.3438,3.5312 7.5,-2.2188 -1.3126,-5.7187 z"
      id="path2815"
      style="fill:#f5ca00;fill-opacity:1;fill-rule:evenodd;stroke:none" />
    <g id="g3935">
      <g transform="matrix(7.7143258,0,0,7.666116,2275.2817,1937.3185)"
        id="right_leg">
        <path d="m 557.435,181.771 c 2.233,5.36 -12.197,10.547 -15.322,14.453 -3.683,4.954 -19.897,19.787 -20.182,24.349 -0.912,14.583 7.181,28.404 13.281,53.125 5.489,22.245 7.596,39.322 10.025,44.4 1.743,3.642 8.625,13.69 7.812,20.183 -1.041,8.333 -8.289,14.888 -13.541,15.495 -5.253,0.607 -16.319,-3.949 -20.27,-4.645 -3.949,-0.694 -41.71,-5.121 -61.806,-13.541 -18.382,-7.702 -48.915,-33.508 -48.915,-33.508 l 18.229,-31.25 c 0,0 32.845,8.679 51.953,18.1 11.399,5.62 38.542,29.947 38.542,29.947 0,0 -14.062,-15.494 -16.537,-29.036 -1.861,-10.19 3.082,-46.051 -2.604,-59.766 -2.225,-5.366 -11.806,-15.104 -9.375,-21.875 2.43,-6.771 13.021,-3.906 20.052,-8.203 3.812,-2.33 11.83,-13.955 21.919,-17.535 8.072,-2.865 10.286,0.868 13.541,0.347 5.211,-3.818 11.461,-5.207 13.198,-1.04 z"
          id="path11"
          style="fill:#ffc8a0;stroke:#000000;stroke-width:3;stroke-linecap:round;stroke-linejoin:round;stroke-miterlimit:10" />
      </g>
      <g transform="matrix(7.7143258,0,0,7.666116,2275.2817,1937.3185)"
        id="left_leg">
        <path d="m 391.199,435.262 c -7.692,-1.061 -1.566,-14.736 -3.387,-19.396 -1.875,-3.887 -7.778,-20.9 -12.177,-25.523 -10.074,-10.584 -29.091,-8.504 -53.55,-15.582 -22.009,-6.368 -37.852,-13.083 -43.465,-13.517 -4.025,-0.312 -16.83,-0.8 -22.046,-4.749 -6.696,-5.069 -8.749,-14.622 -6.648,-19.475 2.101,-4.852 11.58,-12.159 14.156,-15.231 2.577,-3.073 24.304,-28.176 46.357,-42.721 16.637,-10.974 66.16,-24.4 66.16,-24.4 l 10.323,35.192 c 0,0 -19.221,16.697 -38.007,26.745 -20.177,10.792 -58.258,20.905 -58.258,20.905 0,0 21.733,-5.333 34.697,-0.705 9.756,3.483 38.34,25.694 53.061,27.628 5.76,0.756 18.982,-2.671 23.632,2.818 4.648,5.489 -3.127,13.23 -2.922,21.468 0.112,4.466 7.055,13.171 5.111,23.699 -1.556,8.424 -6.832,10.79 -8.008,13.87 -0.76,3.921 -2.4,9.337 -5.029,8.974 z"
          id="path14-1"
          style="fill:#ffc8a0;stroke:#000000;stroke-width:3;stroke-linecap:round;stroke-linejoin:round;stroke-miterlimit:10" />
      </g>
      <g transform="matrix(7.7143258,0,0,7.666116,2275.2817,1937.3185)"
        id="top_leg">
        <path d="m 246.702,173.785 c 4.201,-4.368 9.027,2.431 18.402,7.465 7.532,4.045 33.333,5.729 38.542,2.604 12.529,-7.517 20.71,-19.67 39.068,-37.314 16.521,-15.876 29.214,-27.282 32.398,-31.925 2.282,-3.331 7.162,-12.892 13.19,-15.435 7.738,-3.265 17.039,-0.266 20.19,3.98 3.151,4.244 7.556,15.42 8.93,19.188 1.373,3.768 10.351,24.396 13.138,50.675 3.284,30.969 -6.569,69.914 -6.569,69.914 l -41.761,-2.815 c 0,0 -5.63,-37.538 -3.285,-51.614 1.499,-8.991 12.124,-49.9 12.124,-49.9 0,0 -9.754,23.952 -20.245,32.865 -7.894,6.708 -41.42,18.274 -50.456,30.056 -3.535,4.609 -6.306,16.96 -14.9,18.002 -9.597,1.163 -16.667,-4.688 -22.917,-13.802 -6.511,-1.562 -14.679,-4.457 -21.354,-8.073 -6.25,-3.385 -7.373,-8.945 -7.292,-12.24 -4.247,-1.913 -10.362,-8.347 -7.203,-11.631 z"
          id="path17"
          style="fill:#ffc8a0;stroke:#000000;stroke-width:3;stroke-linecap:round;stroke-linejoin:round;stroke-miterlimit:10" />
      </g>
      <g transform="matrix(7.7143258,0,0,7.666116,2275.2817,1937.3185)"
        id="right_wing">
        <path d="m 423.003,258.681 c -0.347,14.757 9.723,26.215 9.723,26.215 0,0 5.095,-5.815 8.594,-5.815 4.08,0 30.209,13.542 34.896,12.674 1.813,-0.336 -2.594,-19.643 -6.338,-29.688 -3.559,-9.549 -10.156,-18.664 -17.447,-21.962 -4.333,-1.959 -16.667,-3.125 -21.875,0.348 -5.209,3.471 -7.435,13.194 -7.553,18.228 z"
          id="path20-7"
          style="fill:#ebb437;stroke:#000000;stroke-width:2;stroke-linecap:round;stroke-linejoin:round;stroke-miterlimit:10" />
      </g>
      <g transform="matrix(7.7143258,0,0,7.666116,2275.2817,1937.3185)"
        id="left_wing">
        <path d="m 376.249,258.16 c 0.054,12.587 -9.321,26.909 -9.321,26.909 0,0 -5.496,-6.509 -8.995,-6.509 -4.079,0 -31.543,14.756 -36.23,13.888 -1.814,-0.336 3.929,-20.858 7.672,-30.902 3.559,-9.548 10.156,-18.664 17.448,-21.962 4.333,-1.96 16.667,-3.125 21.875,0.347 5.207,3.473 7.53,13.194 7.551,18.229 z"
          id="path23"
          style="fill:#ebb432;stroke:#000000;stroke-width:2;stroke-linecap:round;stroke-linejoin:round;stroke-miterlimit:10" />
      </g>
      <g transform="matrix(7.7143258,0,0,7.666116,2275.2817,1937.3185)"
        id="Ebene_119">
        <path d="m 336.719,248.351 c -7.7,0.301 -16.52,6.949 -23.52,9.449 1.2,-4.8 6.609,-9.598 7.808,-14.397 -3.299,-0.347 -12.083,3.683 -14.583,5.382 -2.2,3.701 -7.726,14.15 -9.896,19.965 -1.476,-3.299 0.677,-8.29 -1.823,-5.989 -2.9,2.499 -8.594,10.069 -15.191,12.674 0.694,-2.69 4.691,-8.948 2.691,-8.247 -1.2,0.9 -11.5,6.886 -12.5,7.986 -1.215,-2.256 2.426,-5.936 -0.174,-6.336 -1.2,0.8 -12.441,5.162 -13.542,6.162 -1.6,-1.2 4.985,-5.831 3.385,-7.031 -3.2,0.899 -10.229,4.494 -12.76,4.08 -0.968,-0.157 4.253,-3.939 1.302,-3.992 -5.068,-0.091 -11.214,0.862 -12.326,-0.001 3.5,-2 18.209,-6.955 19.909,-10.556 1.1,-1.6 -7.231,-2.28 -7.93,-3.681 2.1,-1.1 10.851,-4.166 13.542,-4.514 1,-1.5 0.703,-0.991 1.302,-2.691 -3.212,-1.302 -9.846,-0.581 -11.545,-0.781 3.9,-2.1 15.885,-6.163 21.528,-6.771 -3.1,-2.101 -7.785,-2.377 -11.285,-2.778 3.199,-1.5 8.288,-1.084 11.788,-0.884 5.301,0.399 7.13,-0.23 12.431,-0.331 -3.2,-1.3 -6.509,-2.486 -9.809,-3.385 12.966,-2.213 19.531,6.771 33.579,5.315 -4.933,-2.365 -8.26,-6.912 -9.36,-10.611 12.934,4.253 24.914,1.91 34.201,2.344 5.8,0.1 17.03,3.085 22.83,3.385 2.431,-9.635 8.854,-15.321 20.92,-15.538 3.646,-4.427 12.5,-13.455 23.525,-4.861 9.461,-8.333 14.539,1.432 18.445,1.432 15.104,0 20.79,10.114 22.18,14.801 3.124,-3.298 3.906,-7.031 5.381,-9.201 1.216,-1.91 2.258,-3.212 4.341,-5.035 0.199,-2 -0.348,-3.993 0.954,-7.378 0.868,-2.777 1.65,-4.861 1.39,-7.118 -1.389,-2.344 -3.906,-4.774 -3.56,-7.986 -2.5,-4 -4.809,-9.61 -5.208,-14.41 -0.601,-8.099 -0.158,-10.763 1.042,-18.663 0.781,3.472 2.04,5.354 2.43,4.861 0.858,-1.084 0.175,-12.207 1.129,-14.236 0.955,2.344 2.994,4.708 3.732,3.038 0.87,-1.968 0.662,-12.149 1.042,-14.583 0.3,0 0.984,11.2 3.386,13.194 -0.501,-2.5 0.743,-9.311 2.344,-11.111 0.781,1.389 1.403,4.596 2.604,5.295 1.042,-1.476 3.653,-13.119 3.553,-15.918 1.9,3.6 2.351,11.317 2.177,15.571 1.389,1.91 3.125,4.861 3.732,9.288 1.216,-1.823 3.385,-5.255 3.385,-8.854 2.604,10.677 -1.041,20.66 0.781,21.875 0.545,-0.334 2.952,-2.517 4.255,-7.726 1.128,11.632 -0.608,16.841 -1.997,20.052 0.521,0.174 2.951,-0.781 3.992,-1.823 -1.735,6.51 -5.381,12.152 -11.544,14.757 -1.389,6.336 -4.466,5.254 -7.466,8.854 0.259,4.948 -0.521,12.5 -2.604,17.188 0.954,-1.215 13.977,-11.632 22.396,-23.351 -0.26,7.118 -3.646,14.583 -7.552,22.135 -2.604,4.34 -6.815,9.458 -9.114,11.458 -5.469,5.122 -11.11,9.765 -17.23,11.588 -7.683,4.948 -0.076,15.123 -6.12,21.615 -3.516,3.776 -8.463,5.339 -13.802,3.516 0.253,4.946 2.518,10.851 8.333,15.364 -1.562,20.443 -17.101,28.386 -24.609,33.594 1.736,3.298 1.579,6.939 1.433,7.553 -0.8,2.599 -0.944,1.746 -0.745,4.445 1.001,4.601 4.601,7.9 8.001,10.9 -1.7,-0.2 -3.3,-0.4 -5,-0.6 1.4,2.8 3.2,5.699 6.5,6.399 5,1.2 13.121,4.378 17.72,6.979 -4.599,2.499 -12.713,-0.298 -17.013,2.604 2.43,3.125 6.787,5.762 9.893,6.518 4.797,1.3 9.897,1.601 14.797,1.401 2.1,0.101 7.597,0.851 10.028,1.72 7.552,2.517 11.065,5.683 16.666,9.982 -1.4,-0.1 -5.295,-0.302 -6.694,-0.402 2.1,2.801 14.391,6.991 16.591,9.69 -3.56,0.868 -6.32,2.24 -3.82,4.34 2.2,1.101 7.102,2.533 9.201,3.733 -1.899,-0.499 -7.672,0.337 -9.572,-0.063 3.583,2.407 11.136,4.316 15.649,5.879 -3.56,1.042 -11.629,0.465 -13.629,-0.435 1.997,2.345 3.386,3.994 5.469,5.903 -5.729,-0.955 -11.775,-3.894 -13.976,-5.295 0.087,1.736 2.518,4.688 4.254,7.292 -2.7,0.1 -14.746,-5.059 -16.146,-6.858 -1.499,0.601 1.631,5.137 2.431,6.338 -3.398,-1 -10.59,-6.077 -12.761,-7.64 0.261,2.691 0.954,5.903 0.521,7.031 -4.254,-6.423 -19.879,-11.284 -21.268,-22.482 -2.899,-2 -4.745,-3.934 -5.545,-7.434 -0.3,-2.001 -2.823,-4.8 -4.524,-5.501 -0.043,6.111 -1.783,15.539 -2.083,15.539 -2.8,-9.602 -5.632,-14.857 -11.632,-22.657 -1.909,-1.737 -4.004,-6.924 -5.903,-6.424 -1.4,0.302 -3.414,4.769 -4.514,4.167 -1.959,-0.165 1.572,-6.251 0.348,-8.16 -1.027,-1.602 -6.945,0.868 -9.375,-0.868 -1.601,-6.2 -1.455,-11.669 -0.955,-17.969 0.5,-2.3 -2.518,-3.819 -3.038,-7.031 -0.701,-3.199 2.229,-7.304 1.128,-10.503 -12.413,-6.163 -22.179,-14.106 -23.481,-31.554 0,0 0.998,-7.422 5.599,-13.933 -5.729,-1.823 -12.109,-6.467 -13.672,-14.974 -7.682,11.588 -19.922,12.891 -25.781,12.37 1.432,-6.509 6.38,-13.931 8.203,-15.45 z"
          id="path26-4"
          style="stroke:#000000;stroke-linecap:round;stroke-linejoin:round" />
      </g>
      <g transform="matrix(7.7143258,0,0,7.666116,2275.2817,1937.3185)"
        id="Ebene_118">
        <path d="m 362.327,265.625 c -3.299,4.948 -4.081,12.848 -4.081,12.848"
          id="path29"
          style="fill:none;stroke:#000000;stroke-linecap:round;stroke-linejoin:round;stroke-miterlimit:10" />
      </g>
      <g transform="matrix(7.7143258,0,0,7.666116,2275.2817,1937.3185)"
        id="Ebene_117">
        <path d="m 358.854,261.111 c -4.34,6.25 -5.902,18.229 -5.902,18.229"
          id="path32-0"
          style="fill:none;stroke:#000000;stroke-linecap:round;stroke-linejoin:round;stroke-miterlimit:10" />
      </g>
      <g transform="matrix(7.7143258,0,0,7.666116,2275.2817,1937.3185)"
        id="Ebene_116">
        <path d="m 354.601,257.205 c -5.035,8.073 -7.292,24.653 -7.292,24.653"
          id="path35"
          style="fill:none;stroke:#000000;stroke-linecap:round;stroke-linejoin:round;stroke-miterlimit:10" />
      </g>
      <g transform="matrix(7.7143258,0,0,7.666116,2275.2817,1937.3185)"
        id="Ebene_115">
        <path d="m 348.438,259.027 c -8.594,14.062 -8.247,26.303 -8.247,26.303"
          id="path38-9"
          style="fill:none;stroke:#000000;stroke-linecap:round;stroke-linejoin:round;stroke-miterlimit:10" />
      </g>
      <g transform="matrix(7.7143258,0,0,7.666116,2275.2817,1937.3185)"
        id="Ebene_114">
        <path d="m 339.583,264.236 c -8.594,13.715 -7.552,24.652 -7.552,24.652"
          id="path41"
          style="fill:none;stroke:#000000;stroke-linecap:round;stroke-linejoin:round;stroke-miterlimit:10" />
      </g>
      <g transform="matrix(7.7143258,0,0,7.666116,2275.2817,1937.3185)"
        id="Ebene_113">
        <path d="m 435.33,267.535 c 3.559,4.428 4.167,11.632 4.167,11.632"
          id="path44-4"
          style="fill:none;stroke:#000000;stroke-linecap:round;stroke-linejoin:round;stroke-miterlimit:10" />
      </g>
      <g transform="matrix(7.7143258,0,0,7.666116,2275.2817,1937.3185)"
        id="Ebene_112">
        <path d="m 439.323,265.799 c 3.385,3.906 5.469,13.716 5.469,13.716"
          id="path47"
          style="fill:none;stroke:#000000;stroke-linecap:round;stroke-linejoin:round;stroke-miterlimit:10" />
      </g>
      <g transform="matrix(7.7143258,0,0,7.666116,2275.2817,1937.3185)"
        id="Ebene_111">
        <path d="m 443.403,262.239 c 5.208,6.338 7.031,19.358 7.031,19.358"
          id="path50-8"
          style="fill:none;stroke:#000000;stroke-linecap:round;stroke-linejoin:round;stroke-miterlimit:10" />
      </g>
      <g transform="matrix(7.7143258,0,0,7.666116,2275.2817,1937.3185)"
        id="Ebene_110">
        <path d="m 447.482,257.292 c 9.636,13.541 9.983,27.257 9.983,27.257"
          id="path53"
          style="fill:none;stroke:#000000;stroke-linecap:round;stroke-linejoin:round;stroke-miterlimit:10" />
      </g>
      <g transform="matrix(7.7143258,0,0,7.666116,2275.2817,1937.3185)"
        id="Ebene_109">
        <path d="m 457.031,260.504 c 8.594,13.715 8.507,28.038 8.507,28.038"
          id="path56-8"
          style="fill:none;stroke:#000000;stroke-linecap:round;stroke-linejoin:round;stroke-miterlimit:10" />
      </g>
      <g transform="matrix(7.7143258,0,0,7.666116,2275.2817,1937.3185)"
        id="face">
        <path d="m 399.566,242.014 c 10.417,0 28.109,4.906 29.427,24.305 1.91,28.125 -21.181,44.792 -29.341,44.792 -9.288,0 -31.076,-16.319 -29.166,-45.573 1.256,-19.229 18.83,-23.524 29.08,-23.524 z"
          id="path59"
          style="fill:#ffc8a0;stroke:#000000;stroke-width:2;stroke-linecap:round;stroke-linejoin:round;stroke-miterlimit:10" />
      </g>
      <g transform="matrix(7.7143258,0,0,7.666116,2275.2817,1937.3185)"
        id="Ebene_107">
        <path d="m 419.358,271.44 c 0,0 -3.126,-1.866 -6.077,-1.822 -2.951,0.043 -6.076,2.083 -6.076,2.083 0,0 3.689,2.17 6.38,2.171 2.691,10e-4 5.773,-2.432 5.773,-2.432 z"
          id="path62-2"
          style="stroke:#000000;stroke-linecap:round;stroke-linejoin:round;stroke-miterlimit:10" />
      </g>
      <g transform="matrix(7.7143258,0,0,7.666116,2275.2817,1937.3185)"
        id="Ebene_106">
        <path d="m 392.448,271.528 c 0,0 -3.559,-2.301 -5.513,-2.604 -1.953,-0.303 -6.64,1.562 -6.64,1.562 0,0 3.603,2.777 6.033,3.039 2.431,0.261 6.12,-1.997 6.12,-1.997 z"
          id="path65"
          style="stroke:#000000;stroke-linecap:round;stroke-linejoin:round;stroke-miterlimit:10" />
      </g>
      <g transform="matrix(7.7143258,0,0,7.666116,2275.2817,1937.3185)"
        id="Ebene_105">
        <path d="m 421.094,265.191 c 0,0 -3.299,-2.908 -9.028,-2.734 -5.729,0.174 -8.55,3.646 -9.244,5.078 -0.442,0.912 -0.26,11.675 0.087,13.021 0.347,1.346 3.732,4.86 3.298,6.597 -0.434,1.737 -2.127,0.955 -3.342,1.648 -1.215,0.696 -2.213,1.562 -3.038,1.562 -1.562,0 -1.779,-0.913 -3.472,-1.432 -1.53,-0.471 -3.473,0 -3.993,-1.433 -0.518,-1.424 1.605,-3.212 1.605,-3.212"
          id="path68-4"
          style="fill:none;stroke:#000000;stroke-linecap:round;stroke-linejoin:round;stroke-miterlimit:10" />
      </g>
      <g transform="matrix(7.7143258,0,0,7.666116,2275.2817,1937.3185)"
        id="Ebene_104">
        <path d="m 393.75,265.364 c 0,0 -2.387,-2.777 -7.986,-2.907 -5.599,-0.131 -9.071,3.429 -9.461,4.688 -0.39,1.259 0.478,2.517 0.478,2.517"
          id="path71"
          style="fill:none;stroke:#000000;stroke-linecap:round;stroke-linejoin:round;stroke-miterlimit:10" />
      </g>
      <g transform="matrix(7.7143258,0,0,7.666116,2275.2817,1937.3185)"
        id="Ebene_101">
        <g id="g80">
          <path d="m 399.479,298.481 c -0.89,0 -2.361,-0.646 -2.361,-0.646 -1.003,-0.113 -3.933,-0.049 -5.517,-0.353 -1.685,-0.323 -3.736,-1.946 -3.928,-2.213 -0.167,-0.233 0.373,-0.689 0.606,-0.857 0.235,-0.167 0.683,-0.166 0.728,0.119 0.163,1.042 1.908,2.024 2.789,2.171 2.344,0.391 5.625,-0.99 5.755,-0.891 l 1.919,0.443 1.894,-0.5 c 0.122,-0.1 3.802,1.077 6.492,0.859 0.828,-0.066 2.474,-0.933 2.851,-2.107 0.087,-0.274 0.51,-0.258 0.733,-0.076 0.223,0.181 0.59,0.702 0.408,0.926 -0.207,0.254 -2.148,1.67 -3.797,2.061 -1.486,0.353 -4.927,0.326 -6.25,0.5 0.001,0 -1.28,0.564 -2.322,0.564 z"
            id="path82-5" />
        </g>
      </g>
      <g transform="matrix(7.7143258,0,0,7.666116,2275.2817,1937.3185)"
        id="Ebene_100">
        <path d="m 404.688,301.302 c 0,0 -3.45,1.498 -5.078,1.498 -2.019,0 -5.426,-1.498 -5.426,-1.498"
          id="path85"
          style="fill:none;stroke:#000000;stroke-width:1.5;stroke-linecap:round;stroke-linejoin:round;stroke-miterlimit:10" />
      </g>
      <g transform="matrix(7.7143258,0,0,7.666116,2275.2817,1937.3185)"
        id="Ebene_99">
        <path d="m 429.167,231.293 c -0.868,0.043 -2.344,-2.647 -2.344,-4.688 0,-2.04 -0.173,-3.906 -1.649,-5.381 -1.13,-1.129 -3.212,-1.302 -4.861,-1.237 -1.649,0.065 -4.774,0.543 -4.817,-1.172 -0.044,-1.714 3.017,-3.754 6.163,-3.754 3.146,0 5.815,1.801 6.987,3.472 1.172,1.671 1.966,4.625 2.041,6.294 0.085,1.909 -0.1,6.396 -1.52,6.466 z"
          id="path88-1"
          style="fill:#ebb437;stroke:#ebb437;stroke-width:0.5;stroke-linecap:round;stroke-linejoin:round;stroke-miterlimit:10" />
      </g>
      <g transform="matrix(7.7143258,0,0,7.666116,2275.2817,1937.3185)"
        id="Ebene_98">
        <path d="m 378.125,219.206 c 0.26,0.89 -6.242,4.874 -8.203,6.25 -3.06,2.148 -5.815,4.883 -5.208,8.529 0.476,2.858 2.57,4.266 4.427,4.73 2.604,0.651 5.946,-0.26 5.946,-0.26 0,0 0.282,1.671 1.389,2.388 1.107,0.716 3.472,1.605 3.472,1.605 0,0 -4.362,1.888 -9.375,1.628 -5.013,-0.261 -9.57,-3.386 -9.961,-7.748 -0.391,-4.362 0.261,-7.617 2.604,-10.612 1.598,-2.042 4.752,-4.688 7.552,-5.794 2.164,-0.856 7.097,-1.606 7.357,-0.716 z"
          id="path91"
          style="fill:#ebb437;stroke:#ebb437;stroke-width:0.5;stroke-linecap:round;stroke-linejoin:round;stroke-miterlimit:10" />
      </g>
      <g transform="matrix(7.7143258,0,0,7.666116,2275.2817,1937.3185)"
        id="Ebene_97">
        <ellipse cx="377.539"
          cy="234.147"
          rx="2.4089999"
          ry="1.1390001"
          transform="matrix(-0.838,0.5457,-0.5457,-0.838,821.6836,224.3418)"
          id="ellipse94"
          style="fill:#ebb437;stroke:#ebb437;stroke-width:0.5;stroke-linecap:round;stroke-linejoin:round;stroke-miterlimit:10" />
      </g>
      <g transform="matrix(7.7143258,0,0,7.666116,2275.2817,1937.3185)"
        id="Ebene_96">
        <path d="m 391.602,226.627 c 0,0 -6.185,-0.065 -8.333,1.562 -1.807,1.369 -2.213,2.604 -1.823,3.516 0.391,0.912 1.758,1.758 4.492,0.651 3.11,-1.258 5.664,-5.729 5.664,-5.729 z"
          id="path97"
          style="fill:#ebb437;stroke:#ebb437;stroke-width:0.5;stroke-linecap:round;stroke-linejoin:round;stroke-miterlimit:10" />
      </g>
      <g transform="matrix(7.7143258,0,0,7.666116,2275.2817,1937.3185)"
        id="Ebene_95">
        <ellipse cx="391.08099"
          cy="222.461"
          rx="5.013"
          ry="2.4089999"
          transform="matrix(-0.9441,0.3297,-0.3297,-0.9441,833.6392,303.5461)"
          id="ellipse100"
          style="fill:#ebb437;stroke:#ebb437;stroke-width:0.5;stroke-linecap:round;stroke-linejoin:round;stroke-miterlimit:10" />
      </g>
      <g transform="matrix(7.7143258,0,0,7.666116,2275.2817,1937.3185)"
        id="Ebene_94">
        <path d="m 398.503,217.513 c 1.822,-2.019 -0.679,-6.445 -6.532,-6.445 -5.469,0 -10.606,8.437 -11.927,9.886 -2.182,2.395 -6.627,6.588 -11.445,9.5 -2.909,2.033 0.086,5.483 2.755,5.028 1.099,-0.188 8.326,-6.663 10.091,-8.594 2.083,-2.279 4.439,-5.638 5.403,-7.031 1.172,-1.693 3.3,-3.711 4.818,-3.711 3.321,0 5.357,3.005 6.837,1.367 z"
          id="path103"
          style="fill:#ebb437;stroke:#ebb437;stroke-width:0.5;stroke-linecap:round;stroke-linejoin:round;stroke-miterlimit:10" />
      </g>
      <g transform="matrix(7.7143258,0,0,7.666116,2275.2817,1937.3185)"
        id="Ebene_93">
        <path d="m 414.714,215.885 c 0.718,-1.301 -0.087,-4.167 -5.426,-4.167 -4.688,0 -9.802,8.79 -10.785,10.417 -1.628,2.691 -3.624,6.467 -8.442,9.766 4.948,0.261 8.052,0 8.052,0 0,0 2.994,-2.669 4.166,-4.948 1.172,-2.279 2.148,-5.729 3.061,-7.096 0.911,-1.367 2.233,-2.904 3.58,-3.255 1.497,-0.391 4.752,1.171 5.794,-0.717 z"
          id="path106-7"
          style="fill:#ebb437;stroke:#ebb437;stroke-width:0.5;stroke-linecap:round;stroke-linejoin:round;stroke-miterlimit:10" />
      </g>
      <g transform="matrix(7.7143258,0,0,7.666116,2275.2817,1937.3185)"
        id="Ebene_92">
        <path d="m 409.549,218.793 c 0.607,-0.781 3.516,0.521 4.036,1.042 0.521,0.521 2.561,5.382 4.904,6.988 2.344,1.606 4.819,2.17 5.687,2.561 0.868,0.391 2.561,3.082 2.387,4.601 -0.174,1.519 -5.469,4.948 -5.469,4.948 0,0 0.869,-4.688 -1.996,-6.554 -2.277,-1.483 -6.511,-0.998 -8.03,-1.259 -1.519,-0.26 -6.554,-2.04 -6.51,-3.472 0.043,-1.433 2.127,-4.774 2.127,-4.774 0,0 3.992,3.906 4.947,2.908 0.956,-0.999 -2.691,-6.207 -2.083,-6.989 z"
          id="path109"
          style="fill:#ebb437;stroke:#ebb437;stroke-width:0.5;stroke-linecap:round;stroke-linejoin:round;stroke-miterlimit:10" />
      </g>
      <g transform="matrix(7.7143258,0,0,7.666116,2275.2817,1937.3185)"
        id="Ebene_91">
        <path d="m 418.74,236.082 c -0.036,-0.943 -6.027,-2.916 -8.943,-2.965 -2.915,-0.049 -7.178,0.83 -7.581,2.673 -0.341,1.555 3.5,4.617 4.715,4.617 1.214,0 1.991,-2.479 3.838,-3.014 1.846,-0.535 8.068,1.313 7.971,-1.311 z"
          id="path112-1"
          style="fill:#ebb437;stroke:#ebb437;stroke-linecap:round;stroke-linejoin:round;stroke-miterlimit:10" />
      </g>
      <g transform="matrix(7.7143258,0,0,7.666116,2275.2817,1937.3185)"
        id="Ebene_90">
        <path d="m 419.271,251.042 c -3.622,0.499 -10.63,-0.801 -13.541,-2.995 -1.74,-1.311 -9.433,-8.562 -13.281,-9.245 -4.492,-0.797 -10.417,5.469 -14.695,0.801 -1.845,-2.013 3.755,-4.19 6.103,-4.824 2.347,-0.633 9.114,-1.705 11.978,-0.925 2.864,0.78 9.007,6.188 11.589,8.38 2.579,2.193 10.024,7.332 11.847,8.808 z"
          id="path115"
          style="fill:#ebb437;stroke:#000000;stroke-width:2;stroke-linecap:round;stroke-linejoin:round;stroke-miterlimit:10" />
      </g>
      <g transform="matrix(7.7143258,0,0,7.666116,2275.2817,1937.3185)"
        id="Ebene_89">
        <path d="m 433.724,221.68 c 2.084,-0.456 3.061,5.794 3.19,8.789 0.129,2.995 -0.911,9.375 -1.953,9.375 -1.042,0 -1.692,-1.823 -1.692,-1.823 0,0 1.106,-4.102 -0.912,-5.925 0.391,-1.562 0.977,-2.995 0.781,-5.013 -0.196,-2.018 -0.815,-5.097 0.586,-5.403 z"
          id="path118-1"
          style="fill:#ebb437;stroke:#ebb437;stroke-width:0.5;stroke-linecap:round;stroke-linejoin:round;stroke-miterlimit:10" />
      </g>
      <g transform="matrix(7.7143258,0,0,7.666116,2275.2817,1937.3185)"
        id="Ebene_88">
        <path d="m 431.572,233.129 c 3.386,1.318 -3.727,9.856 -5.269,10.766 -3.023,1.785 -11.971,2.313 -13.979,1.298 -2.341,-1.183 -5.64,-4.134 -5.64,-4.134 0,0 11.246,1.82 15.538,0.086 4.958,-2 7.264,-8.828 9.35,-8.016 z"
          id="path121"
          style="fill:#ebb437;stroke:#000000;stroke-linecap:round;stroke-linejoin:round;stroke-miterlimit:10" />
      </g>
      <g transform="matrix(7.7143258,0,0,7.666116,2275.2817,1937.3185)"
        id="Ebene_87">
        <ellipse cx="433.52899"
          cy="244.77"
          rx="1.931"
          ry="3.971"
          transform="matrix(0.8633,-0.5046,0.5046,0.8633,-64.2705,252.2207)"
          id="ellipse124"
          style="fill:#ebb437;stroke:#ebb437;stroke-width:0.5;stroke-linecap:round;stroke-linejoin:round;stroke-miterlimit:10" />
      </g>
      <g transform="matrix(7.7143258,0,0,7.666116,2275.2817,1937.3185)"
        id="Ebene_86">
        <ellipse cx="428.32199"
          cy="246.26801"
          rx="1.541"
          ry="2.082"
          transform="matrix(0.8505,-0.526,0.526,0.8505,-65.4966,262.1055)"
          id="ellipse127"
          style="fill:#ebb437;stroke:#ebb437;stroke-width:0.5;stroke-linecap:round;stroke-linejoin:round;stroke-miterlimit:10" />
      </g>
      <g transform="matrix(7.7143258,0,0,7.666116,2275.2817,1937.3185)"
        id="Ebene_85">
        <path d="m 439.41,230.252 c -0.044,5.339 -1.997,9.766 -1.866,11.198 0.13,1.432 1.562,2.56 3.038,3.428 1.477,0.869 3.386,1.562 3.906,1.085 0.521,-0.477 0.608,-2.04 0.131,-2.908 -0.479,-0.868 -2.258,-1.085 -2.692,-2.474 -0.434,-1.388 0.044,-2.995 -0.26,-4.948 -0.305,-1.952 -1.605,-4.556 -2.257,-5.381 z"
          id="path130-5"
          style="fill:#ebb437;stroke:#ebb437;stroke-width:0.5;stroke-linecap:round;stroke-linejoin:round;stroke-miterlimit:10" />
      </g>
      <g transform="matrix(7.7143258,0,0,7.666116,2275.2817,1937.3185)"
        id="Ebene_84">
        <path d="m 413.629,246.181 c 2.275,0.104 8.371,-0.895 9.636,-0.173 1.266,0.721 5.497,6.931 5.902,8.68 0.403,1.75 0.057,4.427 -1.057,5.713 -4.412,-4.151 -10.488,-11.529 -14.481,-14.22 z"
          id="path133"
          style="fill:#ebb437;stroke:#000000;stroke-width:2;stroke-linecap:round;stroke-linejoin:round;stroke-miterlimit:10" />
      </g>
      <g transform="matrix(7.7143258,0,0,7.666116,2275.2817,1937.3185)"
        id="Ebene_83">
        <path d="m 430.599,249.696 c -1.995,0.521 1.042,5.99 0.912,7.292 -0.131,1.302 -2.04,2.907 -1.996,3.559 0.044,0.652 3.992,3.342 6.423,3.342 1.998,0 5.989,-3.081 6.641,-4.557 0.652,-1.476 1.302,-4.991 0.825,-7.552 -0.478,-2.561 -4.602,-5.251 -4.602,-5.251 0,0 -1.084,2.083 -1.128,3.689 -0.044,1.605 1.259,3.559 1.433,4.861 0.174,1.302 -0.738,3.56 -1.216,4.123 -0.478,0.564 -3.081,1.129 -3.862,0.521 -0.781,-0.608 1.648,-3.342 1.648,-5.382 0,-1.823 -3.082,-5.166 -5.078,-4.645 z"
          id="path136-2"
          style="fill:#ebb437;stroke:#ebb437;stroke-width:0.5;stroke-linecap:round;stroke-linejoin:round;stroke-miterlimit:10" />
      </g>
      <g transform="matrix(7.7143258,0,0,7.666116,2275.2817,1937.3185)"
        id="Ebene_82">
        <path d="m 393.75,239.583 c 2.212,0 6.25,4.167 6.25,4.167 0,0 -6.666,3.736 -9.859,4.535 -3.195,0.799 -8.497,1.117 -11.55,2.057 -3.053,0.94 -5.785,8.372 -8.557,8.231 -2.772,-0.141 -1.926,-4.838 -1.926,-4.838 0,0 0.799,-5.215 4.321,-7.282 3.523,-2.067 9.208,-2.114 12.824,-2.865 3.618,-0.753 5.256,-4.005 8.497,-4.005 z"
          id="path139"
          style="fill:#ebb437;stroke:#000000;stroke-width:2;stroke-linecap:round;stroke-linejoin:round;stroke-miterlimit:10" />
      </g>
      <g transform="matrix(7.7143258,0,0,7.666116,2275.2817,1937.3185)"
        id="Ebene_81">
        <path d="m 367.274,246.962 c 0,0 -0.737,3.429 -1.605,3.95 -0.869,0.521 -5.339,-4.514 -5.208,-6.858 0.13,-2.35 6.813,2.908 6.813,2.908 z"
          id="path142-7"
          style="fill:#ebb437;stroke:#ebb437;stroke-width:0.5;stroke-linecap:round;stroke-linejoin:round;stroke-miterlimit:10" />
      </g>
      <g transform="matrix(7.7143258,0,0,7.666116,2275.2817,1937.3185)"
        id="Ebene_80">
        <ellipse cx="364.13199"
          cy="253.877"
          rx="1.012"
          ry="2.684"
          transform="matrix(0.7859,-0.6183,0.6183,0.7859,-79.0269,279.4818)"
          id="ellipse145"
          style="fill:#ebb437;stroke:#ebb437;stroke-width:0.5;stroke-linecap:round;stroke-linejoin:round;stroke-miterlimit:10" />
      </g>
      <g transform="matrix(7.7143258,0,0,7.666116,2275.2817,1937.3185)"
        id="Ebene_79">
        <path d="m 359.299,246.779 c -1.897,-1.314 -2.918,1.747 -2.918,4.378 0,3.162 1.605,6.664 4.329,9.631 2.724,2.967 9.343,4.663 9.343,4.663 l 0.911,-5.556 c 0,0 -6.162,0.168 -9.038,-3.388 -2.676,-3.307 -0.73,-8.415 -2.627,-9.728 z"
          id="path148-6"
          style="fill:#ebb437;stroke:#000000;stroke-linecap:round;stroke-linejoin:round;stroke-miterlimit:10" />
      </g>
      <g transform="matrix(7.7143258,0,0,7.666116,2275.2817,1937.3185)"
        id="Ebene_78">
        <path d="m 359.375,241.189 c -3.646,2.561 -5.078,7.509 -5.078,7.509 0,0 -1.78,-6.857 -1.736,-9.505 0.043,-2.648 1.649,-5.946 3.646,-5.772 1.996,0.173 1.302,5.121 3.168,7.768 z"
          id="path151"
          style="fill:#ebb437;stroke:#ebb437;stroke-width:0.5;stroke-linecap:round;stroke-linejoin:round;stroke-miterlimit:10" />
      </g>
      <g transform="matrix(7.7143258,0,0,7.666116,2275.2817,1937.3185)"
        id="Ebene_77">
        <path d="m 347.57,242.622 c 2.344,0 3.385,7.725 3.298,8.941 -0.087,1.216 -3.125,4.86 -6.597,7.031 -3.473,2.17 -8.637,3.56 -10.156,2.344 -1.52,-1.216 2.167,-8.184 4.297,-10.981 2.213,-2.908 6.814,-7.335 9.158,-7.335 z"
          id="path154-1"
          style="fill:#ebb437;stroke:#ebb437;stroke-width:0.5;stroke-linecap:round;stroke-linejoin:round;stroke-miterlimit:10" />
      </g>
      <g transform="matrix(7.7143258,0,0,7.666116,2275.2817,1937.3185)"
        id="Ebene_76">
        <path d="m 428.581,279.883 c 0.3,1.035 1.643,1.164 3.301,0.683 1.658,-0.481 2.208,-1.926 1.907,-2.961 -0.3,-1.036 -1.338,-1.271 -2.996,-0.791 -1.658,0.481 -2.514,2.034 -2.212,3.069 z"
          id="path157"
          style="fill:#ebb437;stroke:#ebb437;stroke-width:0.5;stroke-linecap:round;stroke-linejoin:round;stroke-miterlimit:10" />
      </g>
      <g transform="matrix(7.7143258,0,0,7.666116,2275.2817,1937.3185)"
        id="Ebene_75">
        <path d="m 435.026,282.031 c 0,0 -3.972,1.497 -6.901,1.389 0,0.825 -1.823,4.254 -1.823,4.254 0,0 6.315,0.261 7.812,-1.085 1.498,-1.346 0.912,-4.558 0.912,-4.558 z"
          id="path160-4"
          style="fill:#ebb437;stroke:#ebb437;stroke-width:0.5;stroke-linecap:round;stroke-linejoin:round;stroke-miterlimit:10" />
      </g>
      <g transform="matrix(7.7143258,0,0,7.666116,2275.2817,1937.3185)"
        id="Ebene_74">
        <path d="m 435.156,288.933 c 0,0 -6.38,1.172 -9.636,0.737 -0.195,0.955 -1.302,2.257 -1.302,2.257 0,0 4.731,3.646 7.031,2.734 2.301,-0.911 3.907,-5.728 3.907,-5.728 z"
          id="path163"
          style="fill:#ebb437;stroke:#ebb437;stroke-width:0.5;stroke-linecap:round;stroke-linejoin:round;stroke-miterlimit:10" />
      </g>
      <g transform="matrix(7.7143258,0,0,7.666116,2275.2817,1937.3185)"
        id="Ebene_73">
        <path d="m 430.469,296.745 c 0,0 -5.403,-1.042 -7.747,-2.475 -0.456,1.172 -1.823,2.604 -1.823,2.604 0,0 2.474,3.19 4.883,3.125 2.409,-0.065 4.687,-3.254 4.687,-3.254 z"
          id="path166-2"
          style="fill:#ebb437;stroke:#ebb437;stroke-width:0.5;stroke-linecap:round;stroke-linejoin:round;stroke-miterlimit:10" />
      </g>
      <g transform="matrix(7.7143258,0,0,7.666116,2275.2817,1937.3185)"
        id="Ebene_72">
        <path d="m 426.302,301.823 c 0,0 -5.664,-1.303 -7.096,-2.409 -0.456,0.911 -2.865,3.19 -2.865,3.19 0,0 2.084,2.539 4.232,2.344 2.148,-0.195 5.729,-3.125 5.729,-3.125 z"
          id="path169"
          style="fill:#ebb437;stroke:#ebb437;stroke-width:0.5;stroke-linecap:round;stroke-linejoin:round;stroke-miterlimit:10" />
      </g>
      <g transform="matrix(7.7143258,0,0,7.666116,2275.2817,1937.3185)"
        id="Ebene_71">
        <path d="m 414.192,304.817 5.859,2.214 c 0,0 -3.189,2.8 -5.989,2.93 -2.8,0.13 -3.841,-1.628 -3.841,-1.628 l 3.971,-3.516 z"
          id="path172-3"
          style="fill:#ebb437;stroke:#ebb437;stroke-width:0.5;stroke-linecap:round;stroke-linejoin:round;stroke-miterlimit:10" />
      </g>
      <g transform="matrix(7.7143258,0,0,7.666116,2275.2817,1937.3185)"
        id="Ebene_70">
        <path d="m 370.182,276.302 c 0.13,1.562 -0.719,1.294 -2.377,0.813 -1.658,-0.481 -2.758,-1.711 -2.457,-2.747 0.3,-1.035 1.483,-1.281 3.142,-0.801 1.657,0.482 1.603,1.661 1.692,2.735 z"
          id="path175"
          style="fill:#ebb437;stroke:#ebb437;stroke-width:0.5;stroke-linecap:round;stroke-linejoin:round;stroke-miterlimit:10" />
      </g>
      <g transform="matrix(7.7143258,0,0,7.666116,2275.2817,1937.3185)"
        id="Ebene_69">
        <path d="m 364.193,277.344 c 0,0 3.27,3.346 7.319,4.008 -0.154,0.811 1.405,4.977 1.405,4.977 0,0 -5.745,-1.344 -7.552,-3.06 -1.807,-1.716 -1.172,-5.925 -1.172,-5.925 z"
          id="path178-2"
          style="fill:#ebb437;stroke:#ebb437;stroke-width:0.5;stroke-linecap:round;stroke-linejoin:round;stroke-miterlimit:10" />
      </g>
      <g transform="matrix(7.7143258,0,0,7.666116,2275.2817,1937.3185)"
        id="Ebene_68">
        <path d="m 365.365,286.719 c 0,0 4.968,1.817 8.919,2.864 0.261,1.303 1.367,3.776 1.367,3.776 0,0 -5.664,0.586 -7.422,-0.521 -2.55,-1.605 -2.864,-6.119 -2.864,-6.119 z"
          id="path181"
          style="fill:#ebb437;stroke:#ebb437;stroke-width:0.5;stroke-linecap:round;stroke-linejoin:round;stroke-miterlimit:10" />
      </g>
      <g transform="matrix(7.7143258,0,0,7.666116,2275.2817,1937.3185)"
        id="Ebene_67">
        <path d="m 369.271,295.573 c 0,0 5.507,0.672 8.594,0.781 0.13,1.106 2.083,3.06 2.083,3.06 0,0 -4.098,2.555 -6.51,1.106 -2.413,-1.448 -4.167,-4.947 -4.167,-4.947 z"
          id="path184-2"
          style="fill:#ebb437;stroke:#ebb437;stroke-width:0.5;stroke-linecap:round;stroke-linejoin:round;stroke-miterlimit:10" />
      </g>
      <g transform="matrix(7.7143258,0,0,7.666116,2275.2817,1937.3185)"
        id="Ebene_66">
        <path d="m 375.781,303.255 c 0,0 4.492,-0.977 5.924,-2.083 0.456,0.911 2.344,2.734 2.344,2.734 0,0 -1.953,2.409 -4.102,2.214 -2.149,-0.195 -4.166,-2.865 -4.166,-2.865 z"
          id="path187"
          style="fill:#ebb437;stroke:#ebb437;stroke-width:0.5;stroke-linecap:round;stroke-linejoin:round;stroke-miterlimit:10" />
      </g>
      <g transform="matrix(7.7143258,0,0,7.666116,2275.2817,1937.3185)"
        id="Ebene_65">
        <path d="m 386.198,306.315 -3.634,1.562 c 0,0 1.028,2.055 3.829,2.148 1.953,0.064 2.799,-1.433 2.799,-1.433 l -2.994,-2.277 z"
          id="path190"
          style="fill:#ebb437;stroke:#ebb437;stroke-width:0.5;stroke-linecap:round;stroke-linejoin:round;stroke-miterlimit:10" />
      </g>
      <g transform="matrix(7.7143258,0,0,7.666116,2275.2817,1937.3185)"
        id="Ebene_64">
        <path d="m 408.203,310.026 c -2.214,1.822 -5.859,2.669 -5.859,2.669 0,0 7.489,12.107 9.636,9.961 3.254,-3.255 -1.303,-10.807 -3.777,-12.63 z"
          id="path193"
          style="fill:#ebb437;stroke:#ebb437;stroke-width:0.5;stroke-linecap:round;stroke-linejoin:round;stroke-miterlimit:10" />
      </g>
      <g transform="matrix(7.7143258,0,0,7.666116,2275.2817,1937.3185)"
        id="Ebene_63">
        <path d="m 397.331,313.347 c 0,0 -1.889,1.692 -3.386,2.474 3.125,1.433 7.683,9.505 9.114,5.859 1.433,-3.646 -5.728,-8.333 -5.728,-8.333 z"
          id="path196"
          style="fill:#ebb437;stroke:#ebb437;stroke-width:0.5;stroke-linecap:round;stroke-linejoin:round;stroke-miterlimit:10" />
      </g>
      <g transform="matrix(7.7143258,0,0,7.666116,2275.2817,1937.3185)"
        id="Ebene_62">
        <path d="m 405.339,322.852 c 0,0 -1.209,2.569 -0.977,4.036 0.586,3.711 9.114,8.073 9.18,4.818 0.064,-3.256 -8.203,-8.854 -8.203,-8.854 z"
          id="path199"
          style="fill:#ebb437;stroke:#ebb437;stroke-width:0.5;stroke-linecap:round;stroke-linejoin:round;stroke-miterlimit:10" />
      </g>
      <g transform="matrix(7.7143258,0,0,7.666116,2275.2817,1937.3185)"
        id="Ebene_61">
        <path d="m 391.211,310.156 2.93,1.823 c 0,0 -2.019,3.385 -4.297,2.344 -2.279,-1.042 1.367,-4.167 1.367,-4.167 z"
          id="path202"
          style="fill:#ebb437;stroke:#ebb437;stroke-width:0.5;stroke-linecap:round;stroke-linejoin:round;stroke-miterlimit:10" />
      </g>
      <g transform="matrix(7.7143258,0,0,7.666116,2275.2817,1937.3185)"
        id="Ebene_60">
        <ellipse cx="391.11301"
          cy="321.32101"
          rx="2.8970001"
          ry="3.9389999"
          id="ellipse205"
          style="fill:#ebb437;stroke:#ebb437;stroke-width:0.5;stroke-linecap:round;stroke-linejoin:round;stroke-miterlimit:10" />
      </g>
      <g transform="matrix(7.7143258,0,0,7.666116,2275.2817,1937.3185)"
        id="Ebene_59">
        <path d="m 397.136,322.591 c -0.781,1.237 -1.953,3.061 -1.953,3.061 0,0 1.758,2.864 2.278,5.533 1.433,0.131 3.19,-1.302 3.19,-3.906 0,-1.823 -2.343,-4.557 -3.515,-4.688 z"
          id="path208"
          style="fill:#ebb437;stroke:#ebb437;stroke-width:0.5;stroke-linecap:round;stroke-linejoin:round;stroke-miterlimit:10" />
      </g>
      <g transform="matrix(7.7143258,0,0,7.666116,2275.2817,1937.3185)"
        id="Ebene_58">
        <path d="m 403.19,330.729 -1.237,1.497 c 0,0 2.995,6.315 4.883,8.528 1.302,-6.64 -3.646,-10.025 -3.646,-10.025 z"
          id="path211"
          style="fill:#ebb437;stroke:#ebb437;stroke-width:0.5;stroke-linecap:round;stroke-linejoin:round;stroke-miterlimit:10" />
      </g>
      <g transform="matrix(7.7143258,0,0,7.666116,2275.2817,1937.3185)"
        id="Ebene_57">
        <path d="m 409.766,335.612 c -0.456,0.781 -0.325,4.166 0.456,5.924 0.781,1.758 4.112,5.311 6.836,6.186 5.469,1.758 17.708,0.977 17.708,0.977 0,0 -10.026,-4.297 -14.714,-6.771 -3.768,-1.988 -6.25,-6.705 -6.25,-6.705 0,0 -3.58,-0.392 -4.036,0.389 z"
          id="path214"
          style="fill:#ebb437;stroke:#ebb437;stroke-width:0.5;stroke-linecap:round;stroke-linejoin:round;stroke-miterlimit:10" />
      </g>
      <g transform="matrix(7.7143258,0,0,7.666116,2275.2817,1937.3185)"
        id="Ebene_56">
        <path d="m 392.513,327.409 c -1.562,0 -2.669,1.692 -2.669,3.775 0,1.562 1.433,4.818 3.255,4.948 1.823,0.13 2.019,-4.167 2.019,-4.167 0,0 -1.043,-4.556 -2.605,-4.556 z"
          id="path217"
          style="fill:#ebb437;stroke:#ebb437;stroke-width:0.5;stroke-linecap:round;stroke-linejoin:round;stroke-miterlimit:10" />
      </g>
      <g transform="matrix(7.7143258,0,0,7.666116,2275.2817,1937.3185)"
        id="Ebene_55">
        <path d="m 399.284,333.333 c 0,0 -1.722,2.245 -1.367,4.167 0.911,4.948 5.823,12.835 8.203,15.039 2.669,2.474 5.338,6.698 6.25,8.138 2.474,3.906 7.161,13.803 7.161,13.803 0,0 0.521,-7.292 -1.302,-12.761 -0.634,-1.902 -3.842,-6.185 -5.209,-8.073 -1.367,-1.888 -4.492,-4.297 -6.575,-7.161 -2.083,-2.864 -7.161,-13.152 -7.161,-13.152 z"
          id="path220"
          style="fill:#ebb437;stroke:#ebb437;stroke-width:0.5;stroke-linecap:round;stroke-linejoin:round;stroke-miterlimit:10" />
      </g>
      <g transform="matrix(7.7143258,0,0,7.666116,2275.2817,1937.3185)"
        id="Ebene_54">
        <path d="m 395.312,338.281 c 0.391,2.995 2.734,6.511 2.734,6.511 0,0 -4.569,0.061 -5.859,-2.019 -1.172,-1.888 -0.521,-4.102 -0.521,-4.102 0,0 1.954,-0.194 3.646,-0.39 z"
          id="path223"
          style="fill:#ebb437;stroke:#ebb437;stroke-width:0.5;stroke-linecap:round;stroke-linejoin:round;stroke-miterlimit:10" />
      </g>
      <g transform="matrix(7.7143258,0,0,7.666116,2275.2817,1937.3185)"
        id="Ebene_53">
        <path d="m 415.625,351.497 c -1.692,1.237 11.676,13.087 16.494,24.546 0.846,-0.326 4.144,-4.103 5.056,-8.855 2.148,1.042 4.883,1.562 8.072,1.758 3.19,0.195 7.748,-0.195 7.748,-0.195 0,0 -1.758,-5.599 -5.469,-6.641 -3.711,-1.042 -7.553,0.521 -10.808,-0.13 -3.254,-0.652 -20.042,-11.251 -21.093,-10.483 z"
          id="path226"
          style="fill:#ebb437;stroke:#ebb437;stroke-linecap:round;stroke-linejoin:round;stroke-miterlimit:10" />
      </g>
      <g transform="matrix(7.7143258,0,0,7.666116,2275.2817,1937.3185)"
        id="Ebene_52">
        <path d="m 453.19,363.867 3.32,4.948 5.403,0.13 c 0,0 -1.106,-3.06 -3.711,-4.427 -1.264,-0.664 -5.012,-0.651 -5.012,-0.651"
          id="path229"
          style="fill:#ebb437;stroke:#ebb437;stroke-linecap:round;stroke-linejoin:round;stroke-miterlimit:10" />
      </g>
      <g transform="matrix(7.7143258,0,0,7.666116,2275.2817,1937.3185)"
        id="Ebene_51">
        <polygon points="455.599,371.289 449.023,371.289 452.669,374.675 459.896,374.739 "
          id="polygon232"
          style="fill:#ebb437;stroke:#ebb437;stroke-linecap:round;stroke-linejoin:round;stroke-miterlimit:10" />
      </g>
      <g transform="matrix(7.7143258,0,0,7.666116,2275.2817,1937.3185)"
        id="Ebene_50">
        <polygon points="465.3,375.391 471.028,375.651 465.82,371.094 460.938,371.159 "
          id="polygon235"
          style="fill:#ebb437;stroke:#ebb437;stroke-linecap:round;stroke-linejoin:round;stroke-miterlimit:10" />
      </g>
      <g transform="matrix(7.7143258,0,0,7.666116,2275.2817,1937.3185)"
        id="Ebene_49">
        <polygon points="438.997,371.094 444.466,376.433 448.828,376.823 448.698,374.805 444.661,371.289 "
          id="polygon238"
          style="fill:#ebb437;stroke:#ebb437;stroke-linecap:round;stroke-linejoin:round;stroke-miterlimit:10" />
      </g>
      <g transform="matrix(7.7143258,0,0,7.666116,2275.2817,1937.3185)"
        id="Ebene_48">
        <polygon points="434.7,377.604 438.606,381.966 442.903,382.356 442.253,378.255 437.109,374.284 "
          id="polygon241"
          style="fill:#ebb437;stroke:#ebb437;stroke-linecap:round;stroke-linejoin:round;stroke-miterlimit:10" />
      </g>
      <g transform="matrix(7.7143258,0,0,7.666116,2275.2817,1937.3185)"
        id="Ebene_47">
        <polygon points="448.958,379.102 445.833,379.102 445.703,382.617 449.284,385.677 451.888,385.547 451.823,382.422 "
          id="polygon244"
          style="fill:#ebb437;stroke:#ebb437;stroke-linecap:round;stroke-linejoin:round;stroke-miterlimit:10" />
      </g>
      <g transform="matrix(7.7143258,0,0,7.666116,2275.2817,1937.3185)"
        id="Ebene_46">
        <polygon points="444.466,384.636 441.016,384.831 441.146,387.435 446.55,391.992 448.894,391.927 448.894,389.258 "
          id="polygon247"
          style="fill:#ebb437;stroke:#ebb437;stroke-linecap:round;stroke-linejoin:round;stroke-miterlimit:10" />
      </g>
      <g transform="matrix(7.7143258,0,0,7.666116,2275.2817,1937.3185)"
        id="Ebene_45">
        <polygon points="455.925,377.214 452.278,377.148 452.344,379.036 455.729,381.966 459.44,382.031 459.31,379.817 "
          id="polygon250"
          style="fill:#ebb437;stroke:#ebb437;stroke-linecap:round;stroke-linejoin:round;stroke-miterlimit:10" />
      </g>
      <g transform="matrix(7.7143258,0,0,7.666116,2275.2817,1937.3185)"
        id="Ebene_44">
        <polygon points="467.708,381.836 470.703,381.836 470.703,379.753 467.253,377.474 461.263,377.604 "
          id="polygon253"
          style="fill:#ebb437;stroke:#ebb437;stroke-linecap:round;stroke-linejoin:round;stroke-miterlimit:10" />
      </g>
      <g transform="matrix(7.7143258,0,0,7.666116,2275.2817,1937.3185)"
        id="Ebene_43">
        <polygon points="464.258,381.575 461.653,381.511 461.914,384.245 464.844,387.695 468.489,387.891 468.555,385.481 "
          id="polygon256"
          style="fill:#ebb437;stroke:#ebb437;stroke-linecap:round;stroke-linejoin:round;stroke-miterlimit:10" />
      </g>
      <g transform="matrix(7.7143258,0,0,7.666116,2275.2817,1937.3185)"
        id="Ebene_42">
        <polygon points="456.445,385.156 459.896,385.352 463.802,389.453 463.672,392.708 460.286,392.317 456.511,387.956 "
          id="polygon259"
          style="fill:#ebb437;stroke:#ebb437;stroke-linecap:round;stroke-linejoin:round;stroke-miterlimit:10" />
      </g>
      <g transform="matrix(7.7143258,0,0,7.666116,2275.2817,1937.3185)"
        id="Ebene_41">
        <polygon points="454.102,392.903 457.422,393.099 453.841,386.653 453.255,388.737 451.042,388.672 "
          id="polygon262"
          style="fill:#ebb437;stroke:#ebb437;stroke-linecap:round;stroke-linejoin:round;stroke-miterlimit:10" />
      </g>
      <g transform="matrix(7.7143258,0,0,7.666116,2275.2817,1937.3185)"
        id="Ebene_40">
        <polygon points="475.456,380.469 472.917,380.534 472.852,383.724 476.367,385.872 479.297,386.458 479.231,383.854 "
          id="polygon265"
          style="fill:#ebb437;stroke:#ebb437;stroke-linecap:round;stroke-linejoin:round;stroke-miterlimit:10" />
      </g>
      <g transform="matrix(7.7143258,0,0,7.666116,2275.2817,1937.3185)"
        id="Ebene_39">
        <polygon points="468.425,390.039 465.82,390.104 465.82,392.903 469.856,395.703 472.786,395.769 472.461,393.294 "
          id="polygon268"
          style="fill:#ebb437;stroke:#ebb437;stroke-linecap:round;stroke-linejoin:round;stroke-miterlimit:10" />
      </g>
      <g transform="matrix(7.7143258,0,0,7.666116,2275.2817,1937.3185)"
        id="Ebene_38">
        <polygon points="473.633,386.198 470.898,386.133 470.964,389.192 476.237,393.034 480.013,393.359 479.362,390.95 "
          id="polygon271"
          style="fill:#ebb437;stroke:#ebb437;stroke-linecap:round;stroke-linejoin:round;stroke-miterlimit:10" />
      </g>
      <g transform="matrix(7.7143258,0,0,7.666116,2275.2817,1937.3185)"
        id="Ebene_37">
        <path d="M 479.167,202.779 C 464.844,219.793 445.4,235.07 445.4,235.07 c 0,0 2.836,2.601 6.856,1.563 5.382,-1.389 16.902,-15.141 19.618,-18.837 3.126,-4.254 5.904,-9.636 7.293,-15.017 z"
          id="path274"
          style="fill:#ebb437;stroke:#ebb437;stroke-linecap:round;stroke-linejoin:round;stroke-miterlimit:10" />
      </g>
      <g transform="matrix(7.7143258,0,0,7.666116,2275.2817,1937.3185)"
        id="Ebene_36">
        <path d="m 452.171,217.274 c 0.607,1.736 1.042,5.989 0.347,7.726 -0.694,1.736 -8.507,7.466 -8.507,7.466 l -0.607,-3.56 c -10e-4,0 5.554,-5.555 8.767,-11.632 z"
          id="path277"
          style="fill:#ebb437;stroke:#ebb437;stroke-linecap:round;stroke-linejoin:round;stroke-miterlimit:10" />
      </g>
      <g transform="matrix(7.7143258,0,0,7.666116,2275.2817,1937.3185)"
        id="Ebene_35">
        <path d="m 468.229,192.535 c -3.43,0.456 -11.154,0.586 -14.41,0 -0.478,2.496 3.112,5.386 2.951,7.292 -0.304,3.602 -2.56,7.053 -2.776,9.896 -0.218,2.843 1.909,11.806 1.909,11.806 0,0 3.429,-5.057 4.514,-8.854 1.084,-3.798 0.565,-9.31 1.129,-11.545 0.563,-2.237 7.053,-4.038 6.683,-8.595 z"
          id="path280"
          style="fill:#ebb437;stroke:#ebb437;stroke-linecap:round;stroke-linejoin:round;stroke-miterlimit:10" />
      </g>
      <g transform="matrix(7.7143258,0,0,7.666116,2275.2817,1937.3185)"
        id="Ebene_34">
        <path d="m 475.325,178.125 -5.533,5.143 v 6.771 c 0,0 4.036,-2.799 5.143,-5.273 0.726,-1.623 0.39,-6.641 0.39,-6.641 z"
          id="path283"
          style="fill:#ebb437;stroke:#ebb437;stroke-linecap:round;stroke-linejoin:round;stroke-miterlimit:10" />
      </g>
      <g transform="matrix(7.7143258,0,0,7.666116,2275.2817,1937.3185)"
        id="Ebene_33">
        <path d="m 467.317,182.227 c 0,0 0.391,5.99 -0.586,7.162 -0.977,1.172 -2.344,0.586 -2.344,0.586 l -0.13,-5.599 3.06,-2.149 z"
          id="path286"
          style="fill:#ebb437;stroke:#ebb437;stroke-linecap:round;stroke-linejoin:round;stroke-miterlimit:10" />
      </g>
      <g transform="matrix(7.7143258,0,0,7.666116,2275.2817,1937.3185)"
        id="Ebene_32">
        <path d="m 461.458,189.518 -0.064,-8.854 c 0,0 -2.67,0.781 -2.67,2.409 0,1.628 2.734,6.445 2.734,6.445 z"
          id="path289"
          style="fill:#ebb437;stroke:#ebb437;stroke-linecap:round;stroke-linejoin:round;stroke-miterlimit:10" />
      </g>
      <g transform="matrix(7.7143258,0,0,7.666116,2275.2817,1937.3185)"
        id="Ebene_31">
        <path d="m 457.683,189.518 -3.19,-8.724 -3.646,3.646 c 0,0 0.13,4.492 1.692,5.273 1.562,0.781 5.144,-0.195 5.144,-0.195 z"
          id="path292"
          style="fill:#ebb437;stroke:#ebb437;stroke-linecap:round;stroke-linejoin:round;stroke-miterlimit:10" />
      </g>
      <g transform="matrix(7.7143258,0,0,7.666116,2275.2817,1937.3185)"
        id="Ebene_30">
        <polygon points="471.81,177.148 470.442,169.336 474.219,166.016 475.521,174.479 "
          id="polygon295"
          style="fill:#ebb437;stroke:#ebb437;stroke-linecap:round;stroke-linejoin:round;stroke-miterlimit:10" />
      </g>
      <g transform="matrix(7.7143258,0,0,7.666116,2275.2817,1937.3185)"
        id="Ebene_29">
        <polygon points="469.661,178.581 468.294,180.143 466.341,174.479 467.969,171.615 "
          id="polygon298"
          style="fill:#ebb437;stroke:#ebb437;stroke-linecap:round;stroke-linejoin:round;stroke-miterlimit:10" />
      </g>
      <g transform="matrix(7.7143258,0,0,7.666116,2275.2817,1937.3185)"
        id="Ebene_28">
        <path d="m 463.216,169.792 1.237,11.068 c 0,0 -2.539,-2.734 -2.8,-4.623 -0.259,-1.888 1.563,-6.445 1.563,-6.445 z"
          id="path301"
          style="fill:#ebb437;stroke:#ebb437;stroke-linecap:round;stroke-linejoin:round;stroke-miterlimit:10" />
      </g>
      <g transform="matrix(7.7143258,0,0,7.666116,2275.2817,1937.3185)"
        id="Ebene_27">
        <polygon points="459.896,174.87 456.836,179.102 455.273,173.112 457.292,168.229 "
          id="polygon304"
          style="fill:#ebb437;stroke:#ebb437;stroke-linecap:round;stroke-linejoin:round;stroke-miterlimit:10" />
      </g>
      <g transform="matrix(7.7143258,0,0,7.666116,2275.2817,1937.3185)"
        id="Ebene_26">
        <polygon points="448.438,172.787 450.13,169.987 453.32,172.787 453.32,178.255 450.261,180.924 448.372,177.799 "
          id="polygon307"
          style="fill:#ebb437;stroke:#ebb437;stroke-linecap:round;stroke-linejoin:round;stroke-miterlimit:10" />
      </g>
      <g transform="matrix(7.7143258,0,0,7.666116,2275.2817,1937.3185)"
        id="Ebene_25">
        <polygon points="454.492,160.417 455.599,166.146 453.516,168.945 450.391,166.732 450.195,162.109 452.148,158.659 "
          id="polygon310"
          style="fill:#ebb437;stroke:#ebb437;stroke-linecap:round;stroke-linejoin:round;stroke-miterlimit:10" />
      </g>
      <g transform="matrix(7.7143258,0,0,7.666116,2275.2817,1937.3185)"
        id="Ebene_24">
        <polygon points="456.966,159.505 458.008,165.755 460.677,167.708 460.547,159.961 458.854,155.469 "
          id="polygon313"
          style="fill:#ebb437;stroke:#ebb437;stroke-linecap:round;stroke-linejoin:round;stroke-miterlimit:10" />
      </g>
      <g transform="matrix(7.7143258,0,0,7.666116,2275.2817,1937.3185)"
        id="Ebene_23">
        <polygon points="462.761,160.156 462.695,166.016 466.341,168.88 466.536,162.174 464.192,157.748 "
          id="polygon316"
          style="fill:#ebb437;stroke:#ebb437;stroke-linecap:round;stroke-linejoin:round;stroke-miterlimit:10" />
      </g>
      <g transform="matrix(7.7143258,0,0,7.666116,2275.2817,1937.3185)"
        id="Ebene_22">
        <polygon points="468.489,161.198 468.685,167.708 471.159,165.69 471.745,160.417 470.638,157.162 "
          id="polygon319"
          style="fill:#ebb437;stroke:#ebb437;stroke-linecap:round;stroke-linejoin:round;stroke-miterlimit:10" />
      </g>
      <g transform="matrix(7.7143258,0,0,7.666116,2275.2817,1937.3185)"
        id="Ebene_21">
        <polygon points="463.151,155.013 467.317,157.292 469.401,153.451 467.058,146.875 464.778,144.987 462.956,149.87 "
          id="polygon322"
          style="fill:#ebb437;stroke:#ebb437;stroke-linecap:round;stroke-linejoin:round;stroke-miterlimit:10" />
      </g>
      <g transform="matrix(7.7143258,0,0,7.666116,2275.2817,1937.3185)"
        id="Ebene_20">
        <path d="m 349.87,234.505 c 0,0 -4.102,-1.888 -7.422,-2.474 -3.32,-0.586 -15.82,-0.391 -20.442,-0.521 -4.623,-0.13 -14.974,-1.367 -17.708,-2.474 0,0.977 0.065,3.581 4.818,5.599 4.752,2.019 19.596,0.781 24.219,0.912 4.622,0.13 14.778,3.255 15.755,2.734 0.977,-0.521 0.78,-3.776 0.78,-3.776 z"
          id="path325"
          style="fill:#ebb437;stroke:#ebb437;stroke-width:0.5;stroke-linecap:round;stroke-linejoin:round;stroke-miterlimit:10" />
      </g>
      <g transform="matrix(7.7143258,0,0,7.666116,2275.2817,1937.3185)"
        id="Ebene_19">
        <path d="m 342.123,240.104 c 0,-0.781 -5.794,-1.758 -8.008,-1.302 -2.214,0.456 -6.286,2.792 -9.245,5.403 -3.32,2.93 -7.031,8.529 -7.031,8.529 0,0 9.701,-5.338 19.401,-7.748 1.758,-0.976 4.883,-4.101 4.883,-4.882 z"
          id="path328"
          style="fill:#ebb437;stroke:#ebb437;stroke-width:0.5;stroke-linecap:round;stroke-linejoin:round;stroke-miterlimit:10" />
      </g>
      <g transform="matrix(7.7143258,0,0,7.666116,2275.2817,1937.3185)"
        id="Ebene_18">
        <path d="m 328.906,237.826 c 0,0 -3.581,2.93 -5.599,3.45 -2.018,0.521 -6.38,-0.325 -10.612,1.172 -4.232,1.498 -9.917,8.248 -11.306,10.331 -0.521,-5.469 -3.516,-12.175 -5.729,-15.104 2.344,-0.065 5.447,1.062 5.447,1.062 0,0 2.018,1.953 3.906,1.823 1.888,-0.13 3.19,-1.823 5.534,-2.148 2.344,-0.326 18.359,-0.586 18.359,-0.586 z"
          id="path331"
          style="fill:#ebb437;stroke:#ebb437;stroke-width:0.5;stroke-linecap:round;stroke-linejoin:round;stroke-miterlimit:10" />
      </g>
      <g transform="matrix(7.7143258,0,0,7.666116,2275.2817,1937.3185)"
        id="Ebene_17">
        <polygon points="298.568,254.167 295.312,257.878 291.992,257.747 291.927,253.255 297.526,249.023 "
          id="polygon334"
          style="fill:#ebb437;stroke:#ebb437;stroke-linecap:round;stroke-linejoin:round;stroke-miterlimit:10" />
      </g>
      <g transform="matrix(7.7143258,0,0,7.666116,2275.2817,1937.3185)"
        id="Ebene_16">
        <polygon points="290.234,251.562 287.174,251.302 287.109,248.242 295.312,244.987 297.721,245.703 "
          id="polygon337"
          style="fill:#ebb437;stroke:#ebb437;stroke-linecap:round;stroke-linejoin:round;stroke-miterlimit:10" />
      </g>
      <g transform="matrix(7.7143258,0,0,7.666116,2275.2817,1937.3185)"
        id="Ebene_15">
        <path d="m 294.727,242.057 -7.682,2.865 -0.065,-2.799 c 0,0 3.06,-3.646 4.753,-3.646 1.691,0 2.994,3.58 2.994,3.58 z"
          id="path340"
          style="fill:#ebb437;stroke:#ebb437;stroke-linecap:round;stroke-linejoin:round;stroke-miterlimit:10" />
      </g>
      <g transform="matrix(7.7143258,0,0,7.666116,2275.2817,1937.3185)"
        id="Ebene_14">
        <polygon points="288.477,259.05 284.245,262.305 284.18,265.886 287.891,265.755 293.099,260.417 "
          id="polygon343"
          style="fill:#ebb437;stroke:#ebb437;stroke-linecap:round;stroke-linejoin:round;stroke-miterlimit:10" />
      </g>
      <g transform="matrix(7.7143258,0,0,7.666116,2275.2817,1937.3185)"
        id="Ebene_13">
        <polygon points="288.737,256.055 288.737,253.841 284.766,253.711 281.12,256.641 281.12,260.156 283.463,260.222 "
          id="polygon346"
          style="fill:#ebb437;stroke:#ebb437;stroke-linecap:round;stroke-linejoin:round;stroke-miterlimit:10" />
      </g>
      <g transform="matrix(7.7143258,0,0,7.666116,2275.2817,1937.3185)"
        id="Ebene_12">
        <polygon points="281.836,248.698 284.049,248.633 283.919,251.367 279.362,255.078 277.344,254.752 277.279,252.018 "
          id="polygon349"
          style="fill:#ebb437;stroke:#ebb437;stroke-linecap:round;stroke-linejoin:round;stroke-miterlimit:10" />
      </g>
      <g transform="matrix(7.7143258,0,0,7.666116,2275.2817,1937.3185)"
        id="Ebene_11">
        <polygon points="284.831,245.377 277.279,249.023 274.805,248.633 280.99,243.62 284.831,243.424 "
          id="polygon352"
          style="fill:#ebb437;stroke:#ebb437;stroke-linecap:round;stroke-linejoin:round;stroke-miterlimit:10" />
      </g>
      <g transform="matrix(7.7143258,0,0,7.666116,2275.2817,1937.3185)"
        id="Ebene_10">
        <polygon points="283.268,237.24 287.109,237.826 284.701,240.69 277.409,242.318 274.219,241.667 277.213,238.151 "
          id="polygon355"
          style="fill:#ebb437;stroke:#ebb437;stroke-linecap:round;stroke-linejoin:round;stroke-miterlimit:10" />
      </g>
      <g transform="matrix(7.7143258,0,0,7.666116,2275.2817,1937.3185)"
        id="Ebene_9">
        <path d="m 274.544,244.662 c -2.344,-0.781 -3.776,-2.539 -3.776,-2.539 0,0 -4.297,1.823 -5.469,3.646 -0.225,0.351 -1.042,2.995 -0.195,3.516 0.847,0.521 3.581,0.391 3.581,0.391 0,0 3.776,-2.215 5.859,-5.014 z"
          id="path358"
          style="fill:#ebb437;stroke:#ebb437;stroke-linecap:round;stroke-linejoin:round;stroke-miterlimit:10" />
      </g>
      <g transform="matrix(7.7143258,0,0,7.666116,2275.2817,1937.3185)"
        id="Ebene_8">
        <polygon points="270.898,250.912 268.229,252.799 268.685,254.167 274.935,254.623 274.74,251.042 "
          id="polygon361"
          style="fill:#ebb437;stroke:#ebb437;stroke-linecap:round;stroke-linejoin:round;stroke-miterlimit:10" />
      </g>
      <g transform="matrix(7.7143258,0,0,7.666116,2275.2817,1937.3185)"
        id="Ebene_7">
        <polygon points="278.646,259.57 278.255,257.292 274.935,257.031 272.461,259.31 272.331,262.109 274.87,261.849 "
          id="polygon364"
          style="fill:#ebb437;stroke:#ebb437;stroke-linecap:round;stroke-linejoin:round;stroke-miterlimit:10" />
      </g>
      <g transform="matrix(7.7143258,0,0,7.666116,2275.2817,1937.3185)"
        id="Ebene_6">
        <polygon points="278.385,262.109 281.25,262.63 281.185,264.909 276.042,267.383 272.787,267.383 273.307,264.388 "
          id="polygon367"
          style="fill:#ebb437;stroke:#ebb437;stroke-linecap:round;stroke-linejoin:round;stroke-miterlimit:10" />
      </g>
      <g transform="matrix(7.7143258,0,0,7.666116,2275.2817,1937.3185)"
        id="Ebene_5">
        <polygon points="266.406,262.305 269.466,262.63 269.271,265.755 264.844,268.229 262.37,268.294 262.305,265.495 "
          id="polygon370"
          style="fill:#ebb437;stroke:#ebb437;stroke-linecap:round;stroke-linejoin:round;stroke-miterlimit:10" />
      </g>
      <g transform="matrix(7.7143258,0,0,7.666116,2275.2817,1937.3185)"
        id="Ebene_4">
        <polygon points="267.773,255.859 270.898,256.315 270.312,258.333 267.057,260.026 264.193,260.156 264.127,257.878 "
          id="polygon373"
          style="fill:#ebb437;stroke:#ebb437;stroke-linecap:round;stroke-linejoin:round;stroke-miterlimit:10" />
      </g>
      <g transform="matrix(7.7143258,0,0,7.666116,2275.2817,1937.3185)"
        id="Ebene_3">
        <polygon points="265.299,253.906 261.719,257.031 257.812,256.966 257.877,254.167 261.545,250.564 263.412,250.608 263.194,252.518 265.452,252.213 "
          id="polygon376"
          style="fill:#ebb437;stroke:#ebb437;stroke-linecap:round;stroke-linejoin:round;stroke-miterlimit:10" />
      </g>
      <g transform="matrix(7.7143258,0,0,7.666116,2275.2817,1937.3185)"
        id="Ebene_2">
        <polygon points="256.706,259.44 261.198,259.766 261.198,262.956 255.99,266.797 250.716,265.56 251.367,263.411 "
          id="polygon379"
          style="fill:#ebb437;stroke:#ebb437;stroke-linecap:round;stroke-linejoin:round;stroke-miterlimit:10" />
      </g>
    </g>
  </g>
</svg>
